<?xml version="1.0" encoding="UTF-8" standalone="no"?>
<!-- Created with Inkscape (http://www.inkscape.org/) -->

<svg
   xmlns:dc="http://purl.org/dc/elements/1.1/"
   xmlns:cc="http://creativecommons.org/ns#"
   xmlns:rdf="http://www.w3.org/1999/02/22-rdf-syntax-ns#"
   xmlns:svg="http://www.w3.org/2000/svg"
   xmlns="http://www.w3.org/2000/svg"
   xmlns:sodipodi="http://sodipodi.sourceforge.net/DTD/sodipodi-0.dtd"
   xmlns:inkscape="http://www.inkscape.org/namespaces/inkscape"
   width="210mm"
   height="297mm"
   id="svg2"
   version="1.1"
   inkscape:version="0.48.0 r9654"
   sodipodi:docname="ich_mann_berg_fernrohr2.svg"
   inkscape:export-filename="/home/gntr/workspace/school/pos1/pos2/ich_mann_berg_fernrohr2.png"
   inkscape:export-xdpi="90"
   inkscape:export-ydpi="90">
  <defs
     id="defs4" />
  <sodipodi:namedview
     id="base"
     pagecolor="#ffffff"
     bordercolor="#666666"
     borderopacity="1.0"
     inkscape:pageopacity="0.0"
     inkscape:pageshadow="2"
     inkscape:zoom="0.9899495"
     inkscape:cx="374.12945"
     inkscape:cy="858.83659"
     inkscape:document-units="px"
     inkscape:current-layer="layer1"
     showgrid="false"
     inkscape:window-width="750"
     inkscape:window-height="677"
     inkscape:window-x="573"
     inkscape:window-y="26"
     inkscape:window-maximized="0" />
  <metadata
     id="metadata7">
    <rdf:RDF>
      <cc:Work
         rdf:about="">
        <dc:format>image/svg+xml</dc:format>
        <dc:type
           rdf:resource="http://purl.org/dc/dcmitype/StillImage" />
        <dc:title></dc:title>
      </cc:Work>
    </rdf:RDF>
  </metadata>
  <g
     inkscape:label="Ebene 1"
     inkscape:groupmode="layer"
     id="layer1">
    <path
       style="fill:#4d4d4d;stroke:#666666;stroke-width:5.3689208;stroke-miterlimit:1;stroke-opacity:1;stroke-dasharray:none"
       d=""
       id="path3025"
       inkscape:connector-curvature="0" />
    <g
       id="g3041"
       transform="translate(4.5456882,130.30968)">
      <path
         inkscape:connector-curvature="0"
         d="m 20.719912,116.75707 c 0.86281,-1.25139 1.80686,-2.44472 2.59827,-3.74337 0.90639,-1.55324 1.74876,-3.14144 2.67839,-4.68135 0.88774,-1.42962 1.56189,-2.97402 2.39647,-4.43131 0.95339,-1.2035 1.77173,-2.51512 2.76011,-3.69104 0.81433,-1.09789 1.63918,-2.18852 2.52546,-3.22972 1.17913,-1.41276 2.50924,-2.66881 3.95486,-3.80259 2.36121,-1.79803 4.74648,-3.56392 7.11896,-5.34708 2.32063,-1.79064 4.71506,-3.48115 7.17193,-5.0793 1.54828,-1.04437 3.1981,-1.92557 4.78439,-2.9064 0.61567,-0.38067 1.18541,-0.83107 1.78185,-1.2412 1.97672,-1.33334 3.97399,-2.63463 5.94683,-3.97377 1.92638,-1.45514 4.0193,-2.65435 6.07858,-3.90315 2.21942,-1.28035 4.59603,-2.25694 6.96443,-3.22231 1.74723,-0.70137 3.44307,-1.52636 5.18549,-2.23765 2.01834,-0.81761 4.03755,-1.62457 6.10215,-2.31819 2.3542,-0.6527 4.72725,-1.25022 7.12569,-1.71762 2.25611,-0.35479 4.471718,-0.87366 6.741448,-1.14637 3.0021,-0.45188 6.02996,-0.6432 9.06084,-0.75327 4.90638,-0.11415 9.81491,-0.0923 14.72232,-0.0932 7.236,0.11716 14.46205,0.53764 21.67737,1.07669 6.99267,0.51557 13.97232,1.19579 20.96137,1.76503 5.80079,0.33652 11.59204,0.80414 17.37726,1.34671 3.73143,0.33467 7.4499,0.80157 11.16035,1.31535 2.23414,0.0183 4.44535,-0.0743 6.6673,0.21749 3.06048,0.51754 5.90593,1.82346 8.78228,2.93239 5.1782,1.94515 10.49157,3.48993 15.71272,5.31062 6.18651,2.0764 12.33196,4.26533 18.4341,6.5775 4.47629,1.65361 8.98717,3.20532 13.3818,5.06809 2.78938,1.06854 5.5006,2.31702 8.15283,3.68724 2.4829,1.2871 4.96862,2.57578 7.41712,3.92722 1.86468,0.95783 3.72473,1.92217 5.4546,3.11013 1.1488,0.74021 2.2304,1.57652 3.4025,2.28048 1.22535,0.73144 2.414,1.49505 3.56785,2.33508 1.08928,0.98565 2.32058,1.7845 3.5355,2.60186 1.18918,0.7047 2.38267,1.40255 3.51521,2.19707 1.00763,0.80996 2.00331,1.63271 3.01179,2.44254 0.98445,0.73538 2.01768,1.39953 3.01912,2.11031 1.03962,0.8043 2.08406,1.59916 2.88973,2.64378 0.73325,1.15091 1.68475,2.12556 2.55808,3.16582 0.72335,0.64786 1.22645,1.48285 1.85269,2.21393 0.46259,0.6138 0.98748,1.17217 1.61506,1.61789 0.67882,0.6482 1.44777,1.14632 2.2816,1.57008 0.53556,0.32944 0.26825,0.17033 0.80165,0.47779 0,0 -0.41853,0.27179 -0.41853,0.27179 l 0,0 c -0.53272,-0.30831 -0.26607,-0.14977 -0.79975,-0.47594 -0.83435,-0.42735 -1.60429,-0.92827 -2.2865,-1.57571 -0.62864,-0.45085 -1.15725,-1.01053 -1.6217,-1.62811 -0.62424,-0.73282 -1.1291,-1.566 -1.85044,-2.21579 -0.87356,-1.04082 -1.82332,-2.01771 -2.5583,-3.16802 -0.80463,-1.0389 -1.84639,-1.83079 -2.88283,-2.63077 -1.00291,-0.71016 -2.03626,-1.37579 -3.02044,-2.11298 -1.008,-0.80877 -2.00136,-1.63291 -3.01015,-2.43975 -1.13297,-0.79295 -2.32548,-1.49117 -3.51325,-2.19719 -1.2158,-0.81721 -2.44589,-1.6185 -3.53671,-2.60326 -1.15344,-0.83862 -2.34206,-1.60064 -3.56713,-2.33043 -1.17051,-0.70722 -2.25356,-1.54205 -3.4011,-2.28488 -1.72797,-1.18645 -3.58585,-2.14981 -5.44687,-3.10943 -2.44838,-1.35073 -4.93228,-2.64173 -7.41593,-3.9264 -2.65027,-1.36912 -5.35999,-2.61514 -8.14517,-3.68793 -4.3901,-1.86503 -8.89627,-3.42016 -13.36872,-5.07464 -6.10008,-2.31556 -12.24435,-4.50563 -18.43158,-6.57767 -5.2256,-1.81872 -10.54254,-3.36368 -15.7266,-5.3031 -2.87655,-1.10545 -5.72328,-2.40713 -8.78407,-2.91714 -2.22133,-0.28579 -4.43227,-0.18566 -6.66487,-0.21972 -3.70576,-0.51564 -7.41938,-0.98618 -11.14624,-1.32277 -5.7829,-0.54424 -11.57195,-1.01162 -17.37039,-1.35091 -6.98702,-0.57324 -13.96517,-1.25194 -20.95607,-1.76842 -7.21689,-0.53918 -14.44472,-0.95889 -21.68248,-1.06876 -4.91202,0.004 -9.8252,-0.0146 -14.7361,0.10535 -3.03144,0.11257 -6.05963,0.30694 -9.06226,0.75937 -2.268958,0.2772 -4.485178,0.79642 -6.741358,1.15074 -2.39673,0.4696 -4.76959,1.06349 -7.12094,1.7221 -2.06452,0.69594 -4.08397,1.50472 -6.10287,2.32275 -1.74018,0.71527 -3.43745,1.53469 -5.18398,2.23636 -2.07103,0.84431 -4.13692,1.71088 -6.12299,2.74303 -2.07363,1.22477 -4.14403,2.45886 -6.07835,3.89995 -1.97367,1.33931 -3.97051,2.64255 -5.94921,3.97437 -2.1347,1.46991 -4.37794,2.76109 -6.56585,4.14883 -2.459,1.59646 -4.85505,3.28636 -7.1764,5.07749 -2.37038,1.78271 -4.75442,3.54695 -7.1139,5.34406 -1.44638,1.12848 -2.77521,2.38222 -3.95412,3.79157 -0.8872,1.03987 -1.71349,2.12922 -2.52437,3.22904 -0.99459,1.17013 -1.80283,2.48818 -2.76582,3.68379 -0.83841,1.45566 -1.50806,3.00281 -2.39661,4.43259 -0.93153,1.53863 -1.77305,3.127 -2.67764,4.6811 -0.78632,1.30136 -1.73444,2.49086 -2.59,3.74678 0,0 -0.45976,0.19643 -0.45976,0.19643 z"
         id="path2997"
         style="fill:#4d4d4d;stroke:#4d4d4d;stroke-width:10.62992096;stroke-miterlimit:1;stroke-opacity:1;stroke-dasharray:none" />
      <path
         inkscape:connector-curvature="0"
         d="m 25.308662,117.19179 c 1.39421,-0.39427 2.78375,-0.80546 4.20839,-1.07572 1.63036,-0.26067 3.28401,-0.28839 4.9311,-0.31057 2.56343,-0.0591 5.12157,-0.26764 7.68473,-0.36898 2.96656,-0.1047 5.93511,-0.12209 8.90318,-0.13301 2.41122,-0.008 4.82244,-0.005 7.23366,-0.004 2.34043,0.001 4.68086,0.002 7.0213,0.003 3.54155,-0.0418 7.07785,-0.26998 10.6194,-0.36263 5.26855,-0.18767 10.53662,0.0248 15.80304,0.16805 5.57574,0.14809 11.153678,0.17255 16.731028,0.19249 6.89232,-0.12536 13.77132,0.14752 20.65371,0.47183 6.16516,0.27258 12.32343,0.66292 18.49118,0.8792 5.61211,0.16694 11.22735,0.16872 16.84141,0.17894 7.02986,0.30978 14.05675,0.64616 21.09158,0.82703 7.78398,0.16792 15.57023,0.17411 23.35565,0.18549 8.35542,-0.14271 16.69854,0.12125 25.04519,0.45743 6.66742,0.26506 13.33856,0.4204 20.01048,0.50845 2.63411,-0.0217 5.25578,0.021 7.87821,0.26475 1.66014,0.17776 3.32936,0.22268 4.99738,0.25239 2.01302,-0.006 4.01872,0.0168 6.02657,0.16498 1.90725,0.25518 3.80451,0.56998 5.72231,0.73842 1.39027,0.0964 2.77679,0.0812 4.15834,0.27354 1.17765,0.20326 2.36806,0.28151 3.56055,0.32326 1.42083,0.18848 2.84233,0.35218 4.27257,0.44838 1.41327,0.0626 2.81977,0.0489 4.22354,0.23563 1.10483,0.17736 2.21835,0.27497 3.33543,0.32507 1.1877,0.0397 2.37635,0.0343 3.56455,0.0344 1.17502,0.0713 2.32156,-0.0491 3.47797,-0.23532 0,0 -0.39815,0.29908 -0.39815,0.29908 l 0,0 c -1.15728,0.18551 -2.30616,0.29543 -3.48133,0.22795 -1.18917,-3.7e-4 -2.37884,0.007 -3.56746,-0.0351 -1.11748,-0.0519 -2.23111,-0.15249 -3.33641,-0.32961 -1.40292,-0.18445 -2.80929,-0.16679 -4.2212,-0.23341 -1.42989,-0.0981 -2.85071,-0.26517 -4.2721,-0.44673 -1.19373,-0.0425 -2.38499,-0.12362 -3.5638,-0.32719 -1.38037,-0.18989 -2.76657,-0.17115 -4.15501,-0.27291 -1.91628,-0.17126 -3.81174,-0.49006 -5.71838,-0.74031 -2.00837,-0.14671 -4.01469,-0.16429 -6.02802,-0.1606 -1.66858,-0.0308 -3.3384,-0.0758 -4.99892,-0.25583 -2.61661,-0.24433 -5.23305,-0.28739 -7.86134,-0.27216 -6.66526,-0.0987 -13.32967,-0.26143 -19.99063,-0.52429 -8.34673,-0.33642 -16.69004,-0.59767 -25.04553,-0.45502 -7.7871,-0.0111 -15.57507,-0.0151 -23.36072,-0.18318 -7.03642,-0.18133 -14.0649,-0.5185 -21.09661,-0.82202 -5.61605,-0.008 -11.23335,-0.007 -16.84742,-0.17653 -6.16443,-0.22028 -12.31936,-0.61394 -18.48135,-0.88696 -6.88398,-0.32581 -13.76469,-0.59144 -20.65856,-0.46584 -5.57923,-0.0191 -11.159098,-0.0411 -16.736718,-0.18974 -5.26679,-0.14401 -10.53533,-0.35776 -15.80419,-0.16407 -3.5451,0.0969 -7.08505,0.32908 -10.63044,0.36908 -2.34142,3e-4 -4.68283,9.3e-4 -7.02424,-8.6e-4 -2.40975,-0.002 -4.81951,-0.004 -7.22926,10e-4 -2.96758,0.0113 -5.93566,0.0287 -8.9017,0.13409 -2.56564,0.10282 -5.12608,0.31417 -7.69217,0.37287 -1.64593,0.0241 -3.29868,0.0524 -4.9272,0.31842 -1.42421,0.27465 -2.8155,0.6835 -4.20845,1.0841 0,0 0.39486,-0.30677 0.39486,-0.30677 z"
         id="path2999"
         style="fill:#4d4d4d;stroke:#4d4d4d;stroke-width:10.62992096;stroke-miterlimit:1;stroke-opacity:1;stroke-dasharray:none" />
      <path
         inkscape:connector-curvature="0"
         d="m 44.281462,94.47438 c 0.46922,1.34671 0.65834,2.72294 0.63356,4.14158 -0.15783,1.57854 -0.53332,3.13215 -0.98318,4.65101 -0.39435,1.07056 -0.64255,2.24565 -1.28185,3.20344 -0.75513,1.25998 -1.13809,1.61441 -2.45471,2.36584 -1.10613,0.54734 -2.18703,1.15232 -3.32195,1.63964 -1.00353,0.37364 -2.07186,0.49951 -3.11716,0.70729 -1.02686,0.16463 -1.97874,0.86954 -3.02812,0.8586 -0.45247,-0.33166 1.70916,-1.69674 1.95086,-1.85808 1.47443,-0.81495 2.92481,-1.67275 4.39645,-2.49387 1.06116,-0.53411 2.22253,-0.81961 3.34759,-1.18457 0,0 -0.3915,0.30358 -0.3915,0.30358 l 0,0 c -1.12469,0.36248 -2.28399,0.6525 -3.3416,1.19166 -1.21763,0.59985 -2.33203,1.4055 -3.54905,2.00249 -0.18845,0.12536 -2.34679,1.54748 -2.00723,1.74387 1.04681,-0.0213 1.99134,-0.70056 3.01938,-0.86413 1.04318,-0.21087 2.11182,-0.32986 3.11031,-0.71519 1.13603,-0.49363 2.23913,-1.05676 3.31864,-1.6435 0.79553,-0.36673 1.11847,-1.1937 1.61066,-1.854 0.65501,-0.94439 0.89214,-2.12602 1.29139,-3.19096 0.45375,-1.51409 0.82613,-3.06508 0.98968,-4.63923 0.0268,-1.41302 -0.15644,-2.78422 -0.63016,-4.12424 0,0 0.43799,-0.24123 0.43799,-0.24123 z"
         id="path3001"
         style="fill:#4d4d4d;stroke:#4d4d4d;stroke-width:10.62992096;stroke-miterlimit:1;stroke-opacity:1;stroke-dasharray:none" />
      <path
         inkscape:connector-curvature="0"
         d="m 24.359292,119.21319 c 1.79138,-0.60088 3.64919,-0.96481 5.46589,-1.47611 1.49625,-0.57296 3.04911,-0.98396 4.54057,-1.56722 1.02776,-0.48259 2.08593,-0.86368 3.15388,-1.2427 1.11085,-0.55158 2.23897,-1.0178 3.44443,-1.3121 1.37674,-0.31293 2.7243,-0.71327 4.04607,-1.20677 1.08544,-0.43952 2.23773,-0.55165 3.39469,-0.61335 1.88728,-0.006 3.76861,-0.18394 5.64163,-0.40383 2.42868,-0.38339 4.82703,-0.92156 7.25753,-1.29351 1.54085,-0.14295 3.03653,-0.50488 4.49236,-1.01681 1.43112,-0.53519 2.83387,-1.12782 4.28889,-1.60269 2.04171,-0.61149 4.01352,-1.41459 5.99364,-2.19545 1.55068,-0.64294 3.10643,-1.2726 4.65581,-1.91901 1.40276,-0.56327 2.79158,-1.17088 4.23618,-1.61971 1.30382,-0.41822 2.67446,-0.44781 4.01673,-0.6377 1.59103,-0.35812 3.19914,-0.25547 4.81135,-0.17405 3.11179,0.10756 6.228438,-0.0877 9.340908,-0.15626 5.32342,-0.0969 10.64796,-0.10214 15.97209,-0.11087 4.3617,-0.073 8.73098,0.13797 13.08891,-0.12571 1.46061,-0.0884 5.48593,-0.48711 6.91592,-0.62408 8.11695,-0.92769 16.23731,-1.73199 24.39481,-2.19082 11.93278,-0.42526 23.86965,-0.55982 35.79621,-1.16744 11.16237,-0.69892 22.33831,-1.08626 33.5192,-1.3058 7.17826,-0.0265 14.36341,-0.29133 21.54103,-0.10142 0.23709,0.0347 3.2445,0.16408 3.24372,0.69071 -2.8e-4,0.188 -0.40142,0.40631 -0.476,0.45885 -0.29221,0.15519 -0.58442,0.31038 -0.87663,0.46557 0,0 0.38958,-0.31097 0.38958,-0.31097 l 0,0 c 0.007,0.009 0.0146,0.0186 0.0219,0.0279 0.17841,-0.11644 0.47715,-0.17743 0.50768,-0.38827 0.0644,-0.44444 -2.99464,-0.65165 -3.19643,-0.66475 -7.16659,-0.20163 -14.34128,0.0541 -21.50871,0.0806 -11.1767,0.21485 -22.34833,0.60286 -33.50659,1.29825 -11.93106,0.60481 -23.87253,0.74196 -35.80936,1.17742 -8.16204,0.46559 -16.28665,1.27736 -24.40869,2.20324 -1.47991,0.14186 -5.41012,0.53238 -6.9193,0.62316 -4.35937,0.26223 -8.73,0.0522 -13.09309,0.12681 -5.3275,0.011 -10.65544,0.0181 -15.98216,0.11941 -3.116668,0.0721 -6.237568,0.27027 -9.353778,0.16126 -1.61235,-0.0792 -3.21954,-0.17146 -4.8103,0.18481 -1.34125,0.18425 -2.70872,0.22313 -4.0099,0.64276 -1.44288,0.4542 -2.83247,1.05962 -4.23471,1.62436 -1.54752,0.64686 -3.10329,1.27228 -4.65239,1.91507 -1.98103,0.78154 -3.95528,1.58111 -5.99737,2.19469 -1.45432,0.4785 -2.85744,1.07336 -4.29054,1.60521 -1.45695,0.5073 -2.95329,0.8624 -4.49332,1.00609 -2.4304,0.37248 -4.82869,0.91191 -7.25799,1.29169 -1.87567,0.21943 -3.75912,0.39552 -5.64889,0.4054 -1.15481,0.0652 -2.30338,0.18456 -3.38582,0.62544 -1.32266,0.49202 -2.67287,0.88631 -4.04901,1.20182 -1.204,0.29961 -2.32825,0.77548 -3.44308,1.31719 -1.06869,0.37507 -2.12083,0.76898 -3.15124,1.2426 -1.49361,0.57572 -3.04218,0.9963 -4.54055,1.56114 -1.81976,0.50805 -3.67851,0.87714 -5.47132,1.48059 0,0 0.39559,-0.30458 0.39559,-0.30458 z"
         id="path3003"
         style="fill:#4d4d4d;stroke:#4d4d4d;stroke-width:10.62992096;stroke-miterlimit:1;stroke-opacity:1;stroke-dasharray:none" />
      <path
         inkscape:connector-curvature="0"
         d="m 36.986192,98.50506 c 2.34568,-0.80843 4.71675,-1.53025 7.086,-2.26455 5.22191,-1.44694 10.44354,-2.89871 15.69518,-4.23428 4.04847,-1.009 8.10429,-1.98589 12.16181,-2.95689 2.65534,-0.74495 5.34648,-1.35026 8.014,-2.0462 4.80513,-1.2436 9.63277,-2.37748 14.51374,-3.28032 8.268568,-1.39853 16.622028,-2.01133 24.989638,-2.38802 9.81417,-0.18511 19.61843,-0.65326 29.42776,-0.99398 7.49815,-0.25004 15.00027,-0.33352 22.50199,-0.3812 3.43596,-0.0711 6.86484,-0.31016 10.29887,-0.43245 2.29516,-0.0722 4.59165,-0.0819 6.88775,-0.0892 1.32923,-0.003 2.65847,-0.002 3.9877,-4.9e-4 1.11264,-0.0286 2.23139,-0.21945 3.32535,-0.42828 1.66827,-0.5692 3.41999,-0.77597 5.13662,-1.14231 2.22823,-0.59513 4.50544,-0.9784 6.73213,-1.57748 0.74147,-0.20207 1.47956,-0.3914 2.2039,-0.64779 0,0 -0.39163,0.30521 -0.39163,0.30521 l 0,0 c -0.72474,0.25112 -1.46232,0.44099 -2.20262,0.64209 -2.22793,0.59329 -4.50387,0.98121 -6.73235,1.57444 -1.71896,0.36494 -3.46998,0.58256 -5.14211,1.14506 -1.09691,0.20559 -2.21627,0.40118 -3.33215,0.42169 -1.32771,-0.002 -2.65542,-0.004 -3.98313,-0.003 -2.29459,0.005 -4.58955,0.0154 -6.88319,0.0879 -3.42827,0.12196 -6.85188,0.35482 -10.28229,0.4186 -7.49546,0.0399 -14.9913,0.12138 -22.48323,0.36913 -9.80847,0.33838 -19.61195,0.80265 -29.42503,0.99257 -8.37239,0.38185 -16.73077,0.99896 -25.003108,2.40582 -4.88637,0.90824 -9.71938,2.04736 -14.52957,3.29662 -2.66796,0.69475 -5.35784,1.30527 -8.01455,2.04537 -4.05285,0.9663 -8.10366,1.93989 -12.14693,2.9464 -5.25573,1.33711 -10.48187,2.78915 -15.70569,4.24545 -2.37425,0.73703 -4.74931,1.46478 -7.10044,2.27432 0,0 0.39558,-0.30459 0.39558,-0.30459 z"
         id="path3005"
         style="fill:#4d4d4d;stroke:#4d4d4d;stroke-width:10.62992096;stroke-miterlimit:1;stroke-opacity:1;stroke-dasharray:none" />
      <path
         inkscape:connector-curvature="0"
         d="m 64.201992,74.82885 c 1.66458,-0.21985 3.33888,-0.32608 5.00616,-0.52833 2.08672,-0.23888 4.18374,-0.30269 6.27128,-0.53228 1.91196,-0.20957 3.8308,-0.28072 5.74078,-0.5069 2.18289,-0.18399 4.36245,-0.40024 6.54525,-0.58764 2.84423,-0.29694 5.7011,-0.0921 8.54931,0.0156 3.67794,0.19876 7.353478,0.1 11.030038,-0.0516 4.40336,-0.18345 8.79752,-0.39196 13.20558,-0.4024 5.09397,0.0145 10.16673,0.4728 15.24346,0.8283 2.49058,0.17066 4.98526,0.2722 7.48121,0.31178 1.28474,0.10839 2.54171,-0.11935 3.80622,-0.29965 1.27522,-0.18037 2.56519,-0.14079 3.84511,-0.2569 2.06187,-0.16466 4.10768,-0.47092 6.16256,-0.70161 1.5019,-0.18107 3.00704,-0.4034 4.49509,-0.68066 1.96354,-0.40095 3.91711,-0.83301 5.9013,-1.12474 2.12352,-0.25041 4.26344,-0.40825 6.36329,-0.82489 1.82798,-0.442 3.70445,-0.53122 5.57554,-0.59569 2.6561,-0.13985 5.30692,0.0748 7.95581,0.24245 1.8042,0.20146 3.60084,0.46029 5.41037,0.61156 1.12281,0.0874 2.24931,0.0972 3.37485,0.1023 1.19027,-0.0231 2.36663,-0.0206 3.5462,0.14366 1.29523,0.18256 2.60197,0.4164 3.8207,0.902 1.08855,0.43784 2.17692,0.86824 3.25145,1.33932 1.22619,0.44533 2.45315,0.88997 3.67423,1.34929 1.07819,0.54118 2.20932,0.95671 3.35952,1.31397 1.52973,0.39375 2.98921,0.95365 4.43583,1.58079 1.56262,0.76429 3.13021,1.50296 4.72825,2.1926 1.62636,0.7744 3.26708,1.49748 4.95674,2.12321 1.09665,0.46985 2.14476,1.0391 3.23534,1.52051 1.39169,0.50128 2.69161,1.20849 4.03973,1.8091 1.21656,0.46164 2.44246,0.90552 3.60022,1.50248 0.82905,0.42834 1.71932,0.69654 2.55117,1.12109 0.88562,0.5391 1.8091,1.01132 2.71983,1.50748 1.07943,0.41896 2.09554,0.99221 3.0597,1.62998 0.92967,0.57654 1.82384,1.21823 2.68663,1.89019 1.07377,0.73315 2.23216,1.33766 3.34213,2.01921 1.17992,0.66518 2.35398,1.34731 3.47953,2.10172 0.9679,0.66659 2.02894,1.18035 3.01976,1.80697 1.0744,0.53761 2.10264,1.1698 3.05283,1.90416 0.98054,0.83789 2.10962,1.47952 3.08841,2.31414 0.78371,0.56593 1.52281,1.21157 2.34551,1.72153 0.94861,0.5131 2.00237,0.81019 2.93639,1.33988 1.14867,0.8019 2.39695,1.43855 3.65555,2.04627 1.43993,0.75319 2.9756,1.29665 4.41416,2.05189 1.15441,0.53021 2.25522,1.17191 3.44098,1.63016 1.09789,0.38024 2.14242,0.83513 3.18757,1.33487 0.80014,0.28358 1.62251,0.50256 2.43876,0.7365 0,0 -0.40983,0.2806 -0.40983,0.2806 l 0,0 c -0.81824,-0.23532 -1.64381,-0.45282 -2.44425,-0.74283 -1.04316,-0.50082 -2.08979,-0.94869 -3.18456,-1.33231 -1.18532,-0.46244 -2.28923,-1.1013 -3.44305,-1.63548 -1.43887,-0.75293 -2.97257,-1.29939 -4.41244,-2.05106 -1.2602,-0.6079 -2.50779,-1.24782 -3.65979,-2.04723 -0.93826,-0.52447 -1.99106,-0.82409 -2.93908,-1.3408 -0.82177,-0.51536 -1.56546,-1.15751 -2.34785,-1.72877 -0.97912,-0.8327 -2.10626,-1.47575 -3.08638,-2.31253 -0.95185,-0.73082 -1.97891,-1.36068 -3.05175,-1.89934 -0.99218,-0.62487 -2.05123,-1.14215 -3.01914,-1.80897 -1.12585,-0.75264 -2.29872,-1.43499 -3.47759,-2.10062 -1.11213,-0.68149 -2.27351,-1.28536 -3.34713,-2.02248 -0.86457,-0.66817 -1.75381,-1.31325 -2.68404,-1.88732 -0.96484,-0.63512 -1.98038,-1.20479 -3.0578,-1.62623 -0.91001,-0.49716 -1.83403,-0.96746 -2.72029,-1.50542 -0.83298,-0.42057 -1.72286,-0.69119 -2.55007,-1.12212 -1.15811,-0.59342 -2.38168,-1.03846 -3.59624,-1.50184 -1.34753,-0.60287 -2.64998,-1.30547 -4.04174,-1.80759 -1.08824,-0.48343 -2.1366,-1.04928 -3.23163,-1.51933 -1.68864,-0.62895 -3.32856,-1.35446 -4.95607,-2.12671 -1.59873,-0.68897 -3.16591,-1.42969 -4.7301,-2.19151 -1.44556,-0.62751 -2.90646,-1.18075 -4.43499,-1.57495 -1.15026,-0.3598 -2.28061,-0.77739 -3.36049,-1.31673 -1.22268,-0.45806 -2.44981,-0.9046 -3.67688,-1.35077 -1.07345,-0.47173 -2.1625,-0.89916 -3.2497,-1.3383 -1.21803,-0.47896 -2.52144,-0.71236 -3.81416,-0.89204 -1.17833,-0.1611 -2.35432,-0.15803 -3.54275,-0.13801 -1.12594,-0.005 -2.25283,-0.0166 -3.37586,-0.10647 -1.80735,-0.15466 -3.60178,-0.41625 -5.40448,-0.61452 -2.64767,-0.16994 -5.29762,-0.38146 -7.95256,-0.23881 -1.87131,0.068 -3.74694,0.16363 -5.57513,0.6051 -2.10017,0.40788 -4.23771,0.56784 -6.35991,0.81945 -1.9854,0.29546 -3.94018,0.73113 -5.90594,1.13042 -1.48879,0.27231 -2.99185,0.50137 -4.49454,0.67588 -2.0558,0.2304 -4.10259,0.53597 -6.16523,0.7022 -1.28056,0.11243 -2.57097,0.0782 -3.84622,0.26099 -1.26475,0.18103 -2.52292,0.39876 -3.80756,0.29089 -2.49263,-0.0424 -4.98381,-0.15029 -7.47096,-0.32239 -5.07262,-0.36042 -10.14141,-0.8243 -15.23192,-0.83235 -4.41131,0.0155 -8.80882,0.22987 -13.2155,0.41189 -3.6781,0.15032 -7.355218,0.2458 -11.034658,0.0503 -2.84828,-0.10668 -5.70515,-0.30775 -8.54919,-0.008 -2.18365,0.18949 -4.36446,0.40398 -6.54804,0.59165 -1.90977,0.22463 -3.82884,0.29372 -5.74015,0.5059 -2.08753,0.22784 -4.185,0.28965 -6.27112,0.53288 -1.66912,0.20229 -3.34613,0.30522 -5.01134,0.53497 0,0 0.39977,-0.30067 0.39977,-0.30067 z"
         id="path3007"
         style="fill:#4d4d4d;stroke:#4d4d4d;stroke-width:10.62992096;stroke-miterlimit:1;stroke-opacity:1;stroke-dasharray:none" />
      <path
         inkscape:connector-curvature="0"
         id="path3027"
         d="m 293.41519,126.84954 c -0.97227,-0.0907 -4.60882,-0.40421 -8.08122,-0.69678 -3.4724,-0.29257 -8.35901,-0.75113 -10.85914,-1.01902 -6.50388,-0.69691 -33.66159,-1.49428 -68.43784,-2.00941 -35.90748,-0.53189 -71.67378,-1.41544 -72.27235,-1.78537 -0.93225,-0.57617 -55.959418,-1.08968 -76.220068,-0.71129 l -21.46574,0.4009 -4.77329,1.5585 c -2.62532,0.85718 -5.04105,1.55851 -5.3683,1.55851 -0.32725,0 -0.87743,-0.68185 -1.22263,-1.51523 -0.34519,-0.83337 -0.92638,-1.51522 -1.29152,-1.51522 -0.36514,0 -2.02228,-1.66239 -3.68252,-3.69419 l -3.01863,-3.69418 1.5024,-2.23702 c 0.82632,-1.23036 2.63697,-4.28413 4.02366,-6.78615 6.30249,-11.37162 11.12723,-15.64637 36.74057,-32.55237 8.39485,-5.54099 10.78845,-6.85238 18.50651,-10.13923 12.99688,-5.5349 20.12852,-7.01034 36.365498,-7.52349 6.38921,-0.20193 15.82151,-0.18863 20.96066,0.0296 9.29149,0.39447 40.56161,2.79749 54.54824,4.19188 4.02798,0.40157 9.36916,0.8702 11.86929,1.04141 3.91425,0.26804 6.26461,0.89619 16.92006,4.52197 44.11098,15.00987 55.18608,19.78367 71.97336,31.02338 13.31286,8.91345 16.66601,11.63265 20.96063,16.99774 1.34219,1.67674 3.02769,3.36296 3.74557,3.74715 1.25232,0.67023 1.30523,0.87935 1.30523,5.15888 l 0,4.46034 -2.93392,0 c -1.79779,0 -3.31358,-0.28716 -3.91434,-0.74155 -1.28456,-0.97159 -1.92019,-0.96671 -1.54467,0.0119 0.70061,1.82576 -5.88209,2.70668 -14.3355,1.91842 l 0,-1e-5 z m 7.32004,-10.79094 c -1.28482,-2.0789 -21.97838,-16.05875 -30.30101,-20.47032 -6.51235,-3.452 -15.81616,-7.56521 -16.21342,-7.16796 -0.11372,0.11372 1.21494,0.92878 2.95257,1.81125 1.73763,0.88247 5.20488,3.06324 7.70501,4.84617 5.5145,3.93257 11.13403,7.08826 18.04365,10.13253 2.85442,1.25761 5.53078,2.47664 5.94747,2.70895 0.46413,0.25876 0.98991,1.86929 1.35726,4.15749 0.32981,2.05432 0.61391,3.77527 0.63135,3.82435 0.11672,0.32859 2.38625,0.55939 5.99615,0.60979 2.71448,0.0379 4.08518,-0.12183 3.88097,-0.45225 l 0,0 z m -22.51442,-1.19549 c -0.11575,-0.1051 -3.0515,-1.61508 -6.5239,-3.3555 -3.4724,-1.74042 -7.7908,-4.24111 -9.59645,-5.55707 -1.80565,-1.31597 -4.50357,-3.13793 -5.99539,-4.04881 l -2.7124,-1.65613 -18.24827,0.3432 c -10.03654,0.18876 -22.1121,0.55214 -26.83456,0.8075 -4.72247,0.25536 -16.20032,0.70965 -25.50635,1.00953 -18.69488,0.60242 -28.87092,1.22775 -38.3858,2.35885 -4.11957,0.48972 -15.089,0.90213 -31.56727,1.1868 l -25.253808,0.43627 -4.54569,1.68158 -4.54568,1.68158 21.32538,0.31237 c 11.728958,0.17181 27.979788,0.5672 36.112958,0.87865 19.81779,0.7589 48.95238,1.48288 84.74063,2.10576 28.36926,0.49376 55.07435,1.35839 55.5163,1.79744 0.11574,0.11499 0.66501,0.20908 1.2206,0.20908 0.55558,0 0.91545,-0.086 0.7997,-0.1911 z M 58.579182,105.45559 c 3.19518,-0.60617 8.24944,-2.13191 12.62691,-3.8117 4.01453,-1.54052 8.89014,-3.39389 10.83468,-4.11859 l 3.53553,-1.31763 23.991128,-0.41987 c 14.60797,-0.25565 26.85545,-0.71619 31.31473,-1.17752 13.81377,-1.4291 19.34029,-1.79503 34.53224,-2.2865 8.36977,-0.27076 23.28636,-0.83984 33.14798,-1.26462 9.86161,-0.42478 19.91208,-0.82495 22.33436,-0.88928 l 4.40416,-0.11695 -9.68424,-4.29314 c -13.17019,-5.83852 -12.71964,-5.6951 -15.22801,-4.84713 -1.14335,0.38651 -5.37443,1.39476 -9.40242,2.24055 -7.269,1.52633 -7.50438,1.5419 -31.56726,2.08792 -53.60399,1.21633 -65.79522,1.93228 -78.539358,4.61234 -5.59064,1.1757 -38.40182,9.38244 -40.11337,10.03317 -0.83053,0.31577 -1.25318,0.99203 -1.4843,2.37495 -0.17772,1.06341 -0.4634,2.44487 -0.63484,3.0699 -0.29229,1.06561 -0.15854,1.13637 2.1463,1.13564 1.35191,-4.3e-4 4.85551,-0.45562 7.78578,-1.01154 l 0,0 z m -21.23766,-3.56317 c 0,-0.29419 -0.22728,-0.39442 -0.50508,-0.22273 -0.27779,0.17168 -0.50507,0.41238 -0.50507,0.53488 0,0.1225 0.22728,0.22273 0.50507,0.22273 0.2778,0 0.50508,-0.2407 0.50508,-0.53488 z m 33.84011,-17.88168 c 9.30603,-2.31354 18.59304,-4.51141 20.63779,-4.88417 3.42166,-0.62377 3.58255,-0.70655 2.02031,-1.03933 -1.4975,-0.31898 -24.84058,1.27488 -27.45632,1.87472 -0.55559,0.12741 -3.96485,2.18595 -7.57615,4.57454 -3.61129,2.38858 -6.11142,4.19389 -5.55584,4.01178 0.55559,-0.18211 8.62418,-2.224 17.93021,-4.53754 l 0,0 z M 182.69057,74.28097 c -1.03438,-0.10853 -2.85265,-0.11003 -4.04061,-0.003 -1.18796,0.10669 -0.34165,0.19549 1.88068,0.19733 2.22234,0.002 3.1943,-0.0855 2.15993,-0.194 l 0,0 z m -26.65613,-7.11702 2.27285,-0.40471 -2.52538,-0.34651 c -7.29028,-1.00029 -19.40449,-1.56181 -34.09265,-1.58025 -15.04581,-0.0189 -16.91897,0.0756 -22.457328,1.13297 -3.3233,0.63446 -6.16435,1.28748 -6.31346,1.45115 -0.1491,0.16367 6.77472,0.19627 15.386268,0.0724 8.61155,-0.12382 17.9302,-0.0658 20.70812,0.12882 5.99747,0.42029 23.79058,0.12139 27.02158,-0.45392 l 0,0 z"
         style="fill:#4d4d4d;stroke:#666666;stroke-width:5.3689208;stroke-miterlimit:1;stroke-opacity:1;stroke-dasharray:none" />
      <path
         inkscape:connector-curvature="0"
         id="path3029"
         d="m 90.390702,93.1514 c 0.55226,-0.55226 12.732478,-2.28428 19.681798,-2.79874 10.37968,-0.76841 28.49212,-1.45546 54.80078,-2.07871 26.08955,-0.61806 31.20693,-0.98538 38.89087,-2.79154 9.02154,-2.12057 8.77111,-2.12207 14.02077,0.0839 3.88093,1.63085 4.41183,1.98056 3.15182,2.07617 -0.83337,0.0632 -14.1295,0.58253 -29.54696,1.15399 -15.41745,0.57145 -32.35013,1.38098 -37.62818,1.79896 -18.20085,1.44136 -22.26969,1.66477 -35.60788,1.95515 -7.36148,0.16027 -16.67751,0.41883 -20.702288,0.5746 -4.02477,0.15576 -7.2021,0.16754 -7.06073,0.0262 l 0,0 z"
         style="fill:#4d4d4d;stroke:#666666;stroke-width:5.3689208;stroke-miterlimit:1;stroke-opacity:1;stroke-dasharray:none" />
      <path
         inkscape:connector-curvature="0"
         id="path3031"
         d="m 47.460322,108.04918 c -0.97301,-0.77536 -1.22703,-1.41586 -1.16136,-2.92835 0.12221,-2.81468 1.30229,-5.79848 2.70241,-6.83294 1.44769,-1.06961 36.95259,-10.06476 45.51626,-11.53153 11.465658,-1.96381 25.352008,-2.70354 75.911488,-4.04383 22.20651,-0.58867 25.31737,-0.86655 34.59772,-3.09041 3.82822,-0.91736 7.10873,-1.42552 8.33376,-1.29093 1.11117,0.12209 6.63888,2.24121 12.28382,4.70917 l 10.26351,4.48719 -0.22902,2.17153 c -0.12597,1.19433 -0.36837,2.31086 -0.53867,2.48116 -0.1703,0.1703 -10.70886,0.71169 -23.41901,1.20309 -46.95024,1.81518 -51.62342,2.03758 -62.75785,2.98676 -14.13774,1.20519 -20.62188,1.49476 -44.44672,1.98491 l -18.940358,0.38966 -4.54568,1.77348 c -14.11215,5.50579 -21.66597,7.68292 -28.53681,8.22475 -3.28259,0.25886 -3.95426,0.16629 -5.03349,-0.69371 z m 14.02576,-5.90637 c 2.58452,-0.67168 7.81206,-2.38432 11.61676,-3.80586 12.33856,-4.61005 11.34093,-4.60067 -6.8841,0.0647 -7.6284,1.95277 -14.06451,3.67082 -14.30245,3.81788 -0.23795,0.14706 -0.43263,0.61622 -0.43263,1.04258 0,0.99251 3.29545,0.62374 10.00242,-1.11931 l 0,0 z m 28.88845,-8.98938 c 0,-0.46214 -0.41644,-0.60796 -1.27016,-0.44477 -1.87316,0.35808 -2.06112,1.13235 -0.27488,1.13235 0.9667,0 1.54504,-0.25738 1.54504,-0.68758 z M 223.71466,87.49775 c 0,-0.12251 -0.22728,-0.22273 -0.50507,-0.22273 -0.27779,0 -0.50508,0.24069 -0.50508,0.53488 0,0.29419 0.22729,0.39441 0.50508,0.22273 0.27779,-0.17169 0.50507,-0.41238 0.50507,-0.53488 z"
         style="fill:#4d4d4d;stroke:#666666;stroke-width:5.3689208;stroke-miterlimit:1;stroke-opacity:1;stroke-dasharray:none" />
      <path
         inkscape:connector-curvature="0"
         id="path3033"
         d="m 276.18616,117.3548 c -0.3848,-0.38481 -28.47355,-1.2624 -65.60348,-2.04968 -19.58433,-0.41525 -47.65394,-1.10393 -62.37692,-1.53039 -14.72297,-0.42646 -36.26319,-0.95446 -47.86714,-1.17334 -11.729758,-0.22124 -21.297758,-0.60605 -21.547738,-0.8666 -0.2473,-0.25776 -0.52638,-1.34881 -0.62018,-2.42455 l -0.17054,-1.9559 4.33966,-1.65769 4.33966,-1.65769 15.863388,-0.32488 c 22.29817,-0.45666 39.80298,-1.18518 48.94589,-2.03705 11.23006,-1.04634 58.16474,-2.9776 87.37819,-3.59543 l 15.40483,-0.3258 6.93088,4.55827 c 3.81198,2.50704 9.44506,5.8443 12.51796,7.41613 l 5.58709,2.85787 -0.30922,1.86441 c -0.46902,2.82796 -0.62646,3.12711 -1.64571,3.12711 -0.518,0 -1.04298,-0.10115 -1.16662,-0.22479 l 0,0 z m -10.06545,-5.70985 c -0.0112,-0.20835 -2.93248,-2.25391 -6.49173,-4.54569 l -6.47138,-4.16688 -8.28175,4.5e-4 c -17.00719,9.1e-4 -79.68149,2.47738 -95.65994,3.77981 -5.27804,0.43022 -11.30108,0.92306 -13.38452,1.09521 -2.08344,0.17214 -3.56078,0.38144 -3.28299,0.4651 0.86708,0.26114 34.31603,1.19418 72.2259,2.01469 32.75526,0.70895 59.97643,1.44892 60.98796,1.65786 0.20835,0.043 0.36965,-0.0922 0.35845,-0.30055 l 0,0 z"
         style="fill:#4d4d4d;stroke:#666666;stroke-width:5.3689208;stroke-miterlimit:1;stroke-opacity:1;stroke-dasharray:none" />
      <path
         inkscape:connector-curvature="0"
         id="path3035"
         d="M 270.77509,119.54911 C 267.62907,119.32273 232.4,118.33558 192.48827,117.35545 72.513092,114.40917 78.275762,114.6349 76.771862,112.82281 c -0.79013,-0.95205 -1.24461,-3.97378 -0.84009,-5.58553 0.18026,-0.71818 1.06031,-1.77748 1.95568,-2.354 0.89536,-0.57652 1.17337,-0.89366 0.61779,-0.70475 -0.55559,0.1889 -3.61038,1.24208 -6.78842,2.34038 -11.23143,3.88146 -20.75805,5.55666 -24.0627,4.23128 -3.53828,-1.41908 -4.62559,-5.05819 -2.96631,-9.92792 1.58255,-4.64452 2.79128,-5.16729 24.72605,-10.69395 30.55548,-7.69872 32.034388,-7.85182 93.691648,-9.69931 27.63383,-0.82802 31.50216,-1.11702 40.62892,-3.03536 8.78352,-1.8462 10.16644,-1.78265 16.4447,0.75561 17.30726,6.99721 18.44968,7.73708 17.95481,11.6282 -0.18233,1.43366 -0.74844,2.73243 -1.56042,3.57996 l -1.27428,1.33006 -13.24216,0.63984 c -7.28319,0.3519 -16.87872,0.80819 -21.32339,1.01397 -6.88565,0.31879 -7.33399,0.38401 -3.03045,0.44083 2.77792,0.0367 14.48306,-0.26404 26.01142,-0.66827 11.52837,-0.40423 23.25238,-0.74006 26.05335,-0.74629 l 5.09269,-0.0113 7.28168,4.60909 c 4.00493,2.535 9.80264,5.94535 12.88382,7.57854 7.04163,3.73247 7.37513,4.30769 5.70211,9.83504 -0.45035,1.48787 -2.26414,2.81556 -3.62559,2.65393 -0.33417,-0.0397 -3.18161,-0.25735 -6.32763,-0.48373 z m 5.45774,-5.12625 c -0.009,-0.56599 -7.99554,-5.2046 -8.31182,-4.82737 -0.0717,0.0855 -0.24529,1.22629 -0.38582,2.53514 l -0.25551,2.37973 4.10265,0.16912 c 2.25646,0.093 4.27311,0.21538 4.48146,0.27192 0.20834,0.0565 0.37441,-0.1813 0.36904,-0.52854 l 0,0 z m -143.57222,-6.18291 -0.11221,-2.77365 -2.77792,-0.0126 c -1.52786,-0.007 -11.75565,0.23659 -22.72843,0.5412 -18.166828,0.50432 -20.198878,0.64758 -22.728438,1.60235 -1.52785,0.57668 -2.97006,1.21658 -3.2049,1.42199 -0.6911,0.60451 12.61723,1.13503 48.016358,1.91411 l 3.64774,0.0803 -0.1122,-2.77365 z m 124.89416,0.55346 c 0,-0.10994 -1.0995,-0.90543 -2.44333,-1.76777 l -2.44332,-1.56788 -9.2997,0.007 c -14.3711,0.0101 -52.92142,1.40529 -51.61801,1.8681 1.31167,0.46574 65.80436,1.89762 65.80436,1.461 z M 50.978582,106.29366 c 0,-0.0959 -0.45457,-0.58564 -1.01015,-1.08844 -0.98046,-0.8873 -1.01016,-0.88218 -1.01016,0.17426 0,0.75172 0.31251,1.08843 1.01016,1.08843 0.55558,0 1.01015,-0.0784 1.01015,-0.17425 z m 30.30458,-2.8562 c 0.41668,-0.26929 0.53033,-0.48961 0.25253,-0.48961 -0.27779,0 -0.846,0.22032 -1.26269,0.48961 -0.41668,0.26928 -0.53033,0.4896 -0.25253,0.4896 0.27779,0 0.846,-0.22032 1.26269,-0.4896 z m 3.53553,-1.2627 c 0.97227,-0.37442 1.42684,-0.6878 1.01015,-0.6964 -0.41669,-0.009 -1.43946,0.29657 -2.27284,0.67816 -1.95064,0.89319 -1.04334,0.90629 1.26269,0.0182 l 0,-10e-6 z m 16.263158,-1.13426 c -2.583618,-0.0919 -6.674738,-0.0914 -9.091368,9.6e-4 -2.41663,0.0924 -0.30275,0.16753 4.6975,0.167 5.000258,-5e-4 6.977498,-0.0761 4.393868,-0.16796 z m 18.2083,-0.50238 c -1.7362,-0.0986 -4.57726,-0.0986 -6.31346,0 -1.7362,0.0986 -0.31567,0.17932 3.15673,0.17932 3.4724,0 4.89293,-0.0807 3.15673,-0.17932 z m 14.89975,-0.49905 c -1.04172,-0.10897 -2.74636,-0.10897 -3.78808,0 -1.04172,0.10896 -0.1894,0.19812 1.89404,0.19812 2.08344,0 2.93576,-0.0892 1.89404,-0.19812 z m 18.97524,-0.93843 c 6.71727,-0.4407 18.34989,-1.10759 25.85027,-1.48196 l 13.63706,-0.68068 -11.61675,0.27694 c -11.0899,0.26438 -46.81888,2.47883 -42.26526,2.61956 1.19981,0.0371 7.67741,-0.29315 14.39468,-0.73386 l 0,0 z M 86.056132,96.37328 c 0.76603,-0.005 0.85021,-0.14158 0.3788,-0.61298 -0.33335,-0.33335 -0.60609,-1.49507 -0.60609,-2.5816 l 0,-1.9755 -1.89403,0.3538 c -1.04172,0.19458 -1.96109,0.41952 -2.04305,0.49985 -0.082,0.0803 0.12008,1.21473 0.44898,2.52089 0.51779,2.05634 0.74099,2.33646 1.66424,2.08864 0.58644,-0.15741 1.50945,-0.2893 2.05115,-0.2931 z m 26.794288,-0.77842 c 8.33376,-0.1593 23.44817,-0.84348 33.58757,-1.52042 10.13941,-0.67693 29.68586,-1.68391 43.43656,-2.23773 28.95302,-1.16609 32.88757,-1.42873 31.66385,-2.11355 -1.24986,-0.69946 -1.09724,-3.23078 0.25176,-4.17565 0.60827,-0.42606 0.99656,-0.88403 0.86286,-1.01772 -0.13369,-0.1337 -2.36667,-1.06322 -4.96218,-2.0656 l -4.71911,-1.82252 -8.04767,1.57169 c -10.24994,2.00181 -14.7257,2.36428 -37.27286,3.01862 -49.04574,1.42335 -61.10583,2.10761 -73.385018,4.16365 -3.64027,0.60954 -4.55447,1.13648 -2.88883,1.66513 1.29951,0.41245 1.38515,3.05205 0.14354,4.42402 -0.85449,0.9442 -0.79546,0.9594 2.65165,0.6827 1.93907,-0.15565 10.344118,-0.41333 18.677878,-0.57262 z M 232.12251,89.8004 c 0.65373,0 1.1886,-0.18588 1.1886,-0.41306 0,-0.35259 -7.33471,-3.64331 -8.09459,-3.63164 -0.14625,0.002 -0.25989,1.05255 -0.25254,2.334 l 0.0134,2.32992 2.97828,-0.30961 c 1.63805,-0.17029 3.51314,-0.30961 4.16687,-0.30961 z"
         style="fill:#4d4d4d;stroke:#666666;stroke-width:5.3689208;stroke-miterlimit:1;stroke-opacity:1;stroke-dasharray:none" />
      <path
         inkscape:connector-curvature="0"
         id="path3037"
         d="m 286.8492,123.36843 c -3.4724,-0.35972 -6.46119,-0.67295 -6.64176,-0.69606 -0.18056,-0.0231 0.42411,-0.79442 1.34371,-1.71402 2.82986,-2.82986 3.64457,-9.10127 1.49143,-11.48048 -1.09576,-1.21079 -0.34517,-1.26718 1.99744,-0.15006 1.49686,0.7138 1.83994,1.20936 2.28998,3.30785 0.29114,1.35755 0.52935,2.77781 0.52935,3.15613 0,0.37832 0.6624,1.24522 1.47199,1.92645 1.88763,1.58833 8.27475,2.30151 11.41863,1.27498 1.82995,-0.59751 2.02337,-0.82935 2.16884,-2.59959 0.11018,-1.34076 -0.12481,-2.2588 -0.75761,-2.95986 -1.35254,-1.49841 -10.49046,-8.00061 -18.84754,-13.41117 -7.34196,-4.75336 -24.14512,-13.47695 -27.06145,-14.04932 -1.47942,-0.29035 -1.60643,-0.1817 -2.60965,2.23232 l -1.05454,2.53752 1.09442,0.76483 c 1.03108,0.72058 0.91904,0.76655 -1.93604,0.79436 -1.66675,0.0162 -4.86143,0.17209 -7.09929,0.34633 l -4.06884,0.31681 0.2069,-3.24926 c 0.18845,-2.95954 0.0834,-3.39599 -1.1778,-4.89488 -1.63044,-1.93767 -7.04402,-4.75632 -16.14524,-8.40623 -9.46557,-3.79603 -9.37266,-3.79094 -23.66966,-1.29526 -3.2956,0.57528 -8.23903,1.19322 -10.98541,1.3732 l -4.99342,0.32724 0,-2.62541 0,-2.6254 -3.15673,0.15037 -3.15672,0.15037 -0.15267,2.65165 -0.15266,2.65165 -2.59837,0 c -5.10716,0 -46.77738,1.51354 -56.44277,2.05011 -5.41694,0.30072 -12.46275,0.86979 -15.65736,1.26459 -7.684138,0.94966 -7.332588,0.99658 -6.048148,-0.80725 1.25618,-1.76414 1.08409,-2.60149 -0.78652,-3.82716 -1.2352,-0.80934 -2.09965,-0.82763 -11.77016,-0.24905 -12.84747,0.76865 -17.94512,1.38321 -19.98054,2.4088 -2.67791,1.34932 -12.42733,7.91303 -12.42733,8.36658 0,0.23654 0.47298,1.3572 1.05107,2.49035 1.17903,2.31108 1.04573,2.56627 -1.80869,3.46265 -5.71985,1.79622 -7.85405,3.98344 -9.13413,9.36105 -0.67885,2.85186 -0.72709,3.90977 -0.25695,5.63467 0.78291,2.87241 2.64765,4.95224 5.37343,5.99323 3.64696,1.39278 11.80731,0.35308 21.94786,-2.79635 4.25196,-1.32056 4.54532,-1.29723 4.54757,0.36162 0.003,1.73581 1.59629,4.4105 3.11163,5.22148 0.63101,0.3377 2.97283,0.75517 5.20406,0.9277 2.23516,0.17284 -7.14393,0.47462 -20.88722,0.67208 l -24.94401,0.35837 -4.22897,1.37722 -4.22898,1.37722 -3.02711,-2.99552 c -1.66492,-1.64755 -3.14949,-3.38108 -3.29905,-3.8523 -0.30646,-0.96558 5.24085,-10.65801 8.65839,-15.12821 4.28765,-5.6083 10.09161,-10.21413 27.22688,-21.60635 12.49917,-8.30994 15.63152,-10.05295 24.15681,-13.44218 12.76946,-5.0765 17.32163,-5.82083 37.765108,-6.17496 17.38936,-0.30123 25.59397,0.14166 63.08197,3.4052 25.76735,2.24319 22.70447,1.5851 47.42847,10.19046 34.64744,12.0593 43.38125,16.01151 60.40532,27.33454 11.17188,7.43063 13.39345,9.25037 20.32932,16.65216 2.81891,3.00828 3.15672,3.59201 3.15672,5.45478 l 0,2.08599 -1.64149,-0.33847 c -4.64929,-0.95866 -5.48366,-0.94114 -5.76141,0.12096 -0.14665,0.56079 -0.75701,1.15116 -1.35636,1.31195 -1.76615,0.4738 -10.70669,0.23323 -17.5047,-0.47102 z M 39.163812,104.0688 c 0.36903,-0.48613 0.67819,-1.60493 0.68703,-2.48621 0.0139,-1.38465 -0.22073,-1.68048 -1.72697,-2.17758 -1.27135,-0.41959 -2.02309,-0.42538 -2.77792,-0.0214 -1.12729,0.6033 -1.17643,0.85741 -0.7107,3.67504 0.29245,1.76933 0.42975,1.89403 2.08533,1.89403 1.09555,0 2.02847,-0.3375 2.44323,-0.88388 l 0,0 z M 157.92848,69.87305 c 0.98837,-0.34225 1.13642,-0.74649 1.13642,-3.10291 0,-2.39674 -0.13114,-2.73909 -1.13642,-2.96683 -3.70636,-0.83962 -13.56847,-1.35646 -30.93592,-1.62125 -20.03763,-0.3055 -23.73093,-0.11515 -31.326028,1.61448 l -3.54684,0.80772 0.26384,2.62281 0.26384,2.62281 4.04061,0.28067 c 6.074778,0.42195 59.932298,0.1955 61.240498,-0.2575 l 0,0 z"
         style="fill:#4d4d4d;stroke:#666666;stroke-width:5.3689208;stroke-miterlimit:1;stroke-opacity:1;stroke-dasharray:none" />
      <path
         inkscape:connector-curvature="0"
         id="path3039"
         d="m 294.42534,129.37942 c -27.3004,-2.45077 -35.06805,-2.79447 -84.0952,-3.72103 -44.10722,-0.83359 -68.71116,-1.4568 -81.06474,-2.05336 -6.91996,-0.33417 -27.36353,-0.47928 -52.275388,-0.37106 l -40.91118,0.17771 -4.29315,1.44494 c -6.17756,2.07918 -6.54068,2.00511 -10.35222,-2.11171 -5.24967,-5.67013 -6.82037,-7.72058 -6.82037,-8.90354 0,-1.28643 6.95167,-13.09178 10.62638,-18.04576 4.51732,-6.08991 10.21065,-10.68747 27.75942,-22.41665 12.54232,-8.383 17.63492,-11.19679 26.8802,-14.852 12.52435,-4.95161 19.08564,-6.04879 38.527168,-6.44252 10.95031,-0.22177 16.62234,-0.0653 28.78935,0.79427 29.63681,2.09372 56.41828,4.58201 60.46643,5.61799 7.54331,1.93045 42.86907,14.38961 54.69096,19.28914 12.9452,5.36508 28.87469,14.62615 40.60186,23.60507 4.44035,3.39975 14.547,13.68971 15.24246,15.51889 0.25942,0.68235 0.47168,2.88794 0.47168,4.90133 0,3.39702 -0.10767,3.76384 -1.49482,5.09282 -1.41092,1.35175 -1.67509,1.4153 -4.70671,1.13219 -2.14091,-0.19991 -3.88586,-0.0677 -5.23312,0.39644 -2.19754,0.75712 -9.17606,1.27297 -12.80901,0.94684 l 0,0 z m -15.37552,-6.70165 c -0.15557,-0.25171 -0.73719,-0.33885 -1.2925,-0.19363 -1.38974,0.36343 -1.26473,0.65129 0.28285,0.65129 0.71088,0 1.16522,-0.20594 1.00965,-0.45766 z m -5.21538,-0.41346 c -0.9078,-0.11241 -2.27151,-0.11009 -3.03046,0.005 -0.75895,0.11525 -0.0162,0.20722 1.65054,0.20439 1.66676,-0.003 2.28772,-0.0971 1.37992,-0.20954 z m -10.34502,-0.50079 c -0.76393,-0.11573 -2.01399,-0.11573 -2.77792,0 -0.76393,0.11572 -0.1389,0.21041 1.38896,0.21041 1.52786,0 2.15289,-0.0947 1.38896,-0.21041 z m -19.20251,-0.49333 c -0.49142,-0.12806 -1.17328,-0.11964 -1.51523,0.0187 -0.34195,0.13835 0.0601,0.24313 0.8935,0.23283 0.83337,-0.0103 1.11315,-0.12349 0.62173,-0.25155 l 0,-2e-5 z m 60.33184,-0.91249 c 1.26239,-1.06223 1.82384,-1.21078 3.53939,-0.93645 1.89075,0.30234 2.00113,0.25643 1.51816,-0.63154 -0.28646,-0.52666 -1.33499,-1.74084 -2.33006,-2.69816 l -1.80922,-1.74057 0,1.4117 c 0,1.82269 -1.43553,4.84737 -2.30058,4.84737 -0.36865,0 -0.81073,0.22728 -0.98242,0.50508 -0.59822,0.96794 0.87505,0.49606 2.36473,-0.75743 l 0,0 z m -79.01005,0.38289 c -1.8751,-0.0972 -4.94343,-0.0972 -6.81853,0 -1.8751,0.0972 -0.34093,0.17669 3.40927,0.17669 3.75019,0 5.28436,-0.0795 3.40926,-0.17669 z m 64.2157,0.15092 c -0.12299,-0.12299 -1.04452,-0.7807 -2.04786,-1.46158 l -1.82424,-1.23796 -0.53624,1.17691 c -0.43969,0.96501 -0.38168,1.21761 0.32218,1.40299 1.15994,0.30549 4.36588,0.39935 4.08616,0.11964 l 0,0 z m -79.49426,-0.59228 c -2.97929,-0.29328 -72.27634,-1.7999 -74.75128,-1.6252 -5.74048,0.4052 44.76952,1.76868 65.65991,1.77244 5.83363,10e-4 9.92475,-0.0652 9.09137,-0.14724 z m -81.97417,-2.08614 c -2.58363,-0.0919 -6.67474,-0.0914 -9.09137,0.001 -2.41663,0.0924 -0.30275,0.16753 4.6975,0.167 5.00026,-5e-4 6.9775,-0.0761 4.39387,-0.16797 l 0,-4e-5 z m -88.362798,-2.64622 c 2.43068,-0.004 4.41876,-0.17805 4.41797,-0.38639 -8.1e-4,-0.20835 -0.68956,-0.83338 -1.53057,-1.38896 -0.84101,-0.55558 -2.15602,-2.26022 -2.92225,-3.78807 -1.34705,-2.68601 -1.45493,-2.77275 -3.26056,-2.62159 -2.28107,0.19097 -4.38752,-1.60855 -4.4425,-3.79518 -0.0908,-3.61245 -0.67545,-3.4958 -3.32303,0.66308 -1.39562,2.19226 -3.18292,5.1865 -3.97178,6.65388 l -1.43429,2.66797 2.16072,2.20161 2.16072,2.20161 3.86308,-1.20019 c 2.8105,-0.87318 5.06723,-1.20226 8.28249,-1.20777 l 0,0 z m 62.250648,1.97695 c -6.667008,-0.211 -13.996918,-0.49141 -16.288708,-0.62312 -3.33458,-0.19164 -4.16688,-0.0993 -4.16688,0.46224 0,0.58603 2.68548,0.68877 16.28871,0.62313 l 16.288708,-0.0786 -12.12183,-0.38366 z m 176.01908,-1.034 c 0,-0.27779 -0.22728,-0.36461 -0.50508,-0.19292 -0.27779,0.17169 -0.50507,0.53944 -0.50507,0.81723 0,0.27779 0.22728,0.36461 0.50507,0.19292 0.2778,-0.17168 0.50508,-0.53943 0.50508,-0.81723 z m -11.62799,0.18589 c -0.006,-0.20835 -0.42139,-0.91206 -0.9227,-1.56382 -0.71225,-0.926 -0.83753,-1.67223 -0.57319,-3.41411 0.38526,-2.53855 0.21544,-2.28663 2.44612,-3.62861 l 1.6966,-1.02068 -1.19152,-0.72956 c -0.65535,-0.40126 -4.1131,-2.49979 -7.68391,-4.6634 l -6.49236,-3.93383 -23.30714,0.59197 c -12.81892,0.32557 -26.03454,0.64116 -29.36804,0.7013 l -6.06092,0.10934 -0.15007,-2.57706 c -0.14173,-2.43368 -0.21901,-2.56388 -1.38896,-2.34023 -1.10975,0.21214 -1.23888,0.48902 -1.23888,2.65619 l 0,2.41936 -4.67196,0.30903 c -2.56958,0.16996 -13.08148,0.75503 -23.35978,1.30016 -10.2783,0.54512 -20.30606,1.11592 -22.28391,1.26844 l -3.59609,0.27732 -0.24518,-2.5516 c -0.29306,-3.05002 -0.4535,-3.25512 -2.20278,-2.81608 -1.29475,0.32496 -1.3406,0.44803 -1.05747,2.83857 0.25735,2.17294 0.17828,2.49889 -0.60622,2.49889 -1.46358,0 -1.6539,0.60919 -0.55555,1.77832 0.62903,0.66957 1.14998,2.11462 1.33964,3.71599 0.27068,2.28544 0.16097,2.77935 -0.85831,3.86433 -0.64276,0.68419 -1.07306,1.33231 -0.95622,1.44026 0.11684,0.10795 15.55413,0.58548 34.30509,1.06118 18.75095,0.47569 47.50242,1.26496 63.89215,1.75393 16.38972,0.48897 30.99274,0.92147 32.45115,0.96112 1.4584,0.0396 2.64659,-0.0984 2.64041,-0.30672 z M 71.678972,114.42286 c -0.023,-1.87684 -0.77062,-2.01169 -4.84845,-0.87453 -2.19046,0.61084 -4.07735,1.19955 -4.1931,1.30825 -0.11574,0.1087 1.873,0.19763 4.41942,0.19763 3.3713,0 4.62777,-0.17163 4.62213,-0.63135 l 0,0 z m 207.368738,-1.34495 c -0.58048,-0.93923 -1.20921,-0.60222 -0.92243,0.49445 0.17802,0.68073 0.4448,0.87163 0.76734,0.54909 0.27195,-0.27195 0.34174,-0.74154 0.15509,-1.04354 z M 80.273002,108.97553 c 0,-2.38665 -0.0622,-2.50988 -1.01015,-2.00254 -1.50872,0.80744 -1.2566,4.54569 0.30658,4.54569 0.50823,0 0.70357,-0.70611 0.70357,-2.54315 z m -21.1954,-1.46269 c 3.80108,-0.84074 17.1997,-4.92342 19.93271,-6.07367 0.55559,-0.23383 1.74883,-0.70295 2.65165,-1.04248 1.66491,-0.62612 2.21716,-1.50492 0.94573,-1.50492 -1.06207,0 -1.93796,-1.32694 -2.60188,-3.94174 -0.50252,-1.97909 -0.47716,-2.56037 0.15365,-3.52311 0.4155,-0.63414 0.66784,-1.23107 0.56077,-1.32653 -0.31176,-0.27793 -22.51355,5.43431 -27.08196,6.96785 -4.90282,1.6458 -5.95812,2.43897 -6.6261,4.98026 -0.56213,2.13857 -0.62252,2.09886 1.99775,1.31381 3.16353,-0.94782 4.12976,0.56597 2.70761,4.24202 -0.28444,0.73524 -0.0568,0.88205 1.35359,0.87296 0.93254,-0.006 3.63546,-0.44001 6.00648,-0.96445 z m 70.556998,0.62537 c -0.49143,-0.12806 -1.17328,-0.11964 -1.51523,0.0187 -0.34195,0.13836 0.0601,0.24313 0.89349,0.23284 0.83338,-0.0103 1.11316,-0.12349 0.62174,-0.25155 l 0,3e-5 z m 151.15368,-0.90705 c 0,-0.13579 -1.87509,-1.18499 -4.16688,-2.33155 -4.73357,-2.36817 -4.8241,-2.11465 -0.2243,0.62815 2.89801,1.72806 4.39118,2.30728 4.39118,1.7034 l 0,0 z M 89.680052,104.15804 c 1.41385,-0.28195 1.44753,-0.36196 1.27865,-3.03794 -0.13077,-2.07213 -0.41039,-2.87517 -1.13643,-3.26373 -0.52963,-0.28345 -0.98212,-1.01876 -1.00553,-1.63402 -0.0322,-0.84736 -0.2792,-0.60414 -1.01833,1.00285 -0.7765,1.68825 -0.88369,2.53131 -0.52489,4.12823 0.30086,1.33902 0.26997,2.18765 -0.0928,2.55046 -0.62894,0.62894 0.19817,0.71304 2.49937,0.25415 l 0,0 z m 22.412758,-3.55741 c 0,-2.69542 -0.0566,-2.82165 -1.13642,-2.53228 -0.62503,0.1675 -2.89788,0.30765 -5.05077,0.31145 l -3.91434,0.007 0,2.18867 c 0,1.20376 0.15153,2.34019 0.33672,2.52538 0.18519,0.18519 2.45804,0.33672 5.05077,0.33672 l 4.71404,0 0,-2.83683 0,0 z m 17.06201,2.09421 c 0.0781,-0.0718 0.28448,-1.33401 0.45869,-2.80492 l 0.31674,-2.67437 -3.48915,0.32944 c -1.91904,0.1812 -4.11418,0.33106 -4.87811,0.33304 -1.32315,0.003 -1.38896,0.11925 -1.38896,2.44479 0,1.34266 0.0971,2.53834 0.21586,2.65706 0.22081,0.22081 8.50792,-0.0487 8.76493,-0.28504 l 0,0 z m 142.03701,-0.50231 c 0,-0.12912 -0.51139,-0.48258 -1.13642,-0.78547 -1.09128,-0.52884 -1.09747,-0.51951 -0.156,0.23477 1.03049,0.82559 1.29242,0.9372 1.29242,0.5507 z m -2.80317,-1.73146 c -1.08104,-1.01612 -11.47714,-7.63022 -11.99325,-7.63022 -0.91074,0 0.0482,0.69288 6.21013,4.48684 5.60467,3.45089 6.80356,4.10254 5.78312,3.14338 z M 41.443292,95.60199 c 1.36089,-2.0099 3.8379,-3.80665 6.64602,-4.82081 l 1.90896,-0.68943 -0.33217,-2.29225 c -0.1827,-1.26074 -0.36806,-2.33831 -0.41191,-2.39461 -0.13891,-0.17833 -9.02013,6.47721 -11.86859,8.89425 l -2.73384,2.31979 2.22876,0.30294 c 1.22582,0.16663 2.48358,0.33709 2.79501,0.37881 0.31143,0.0417 1.10692,-0.72269 1.76776,-1.69869 z m 47.70742,-4.1762 c -0.51622,-1.46311 -0.55888,-2.16605 -0.15591,-2.56902 0.82855,-0.82854 0.31611,-0.97829 -1.58908,-0.46437 l -1.70611,0.46021 1.3273,1.38542 c 0.73003,0.76197 1.32731,1.96012 1.32731,2.66255 0,1.57733 0.56552,2.22208 1.10441,1.25914 0.22512,-0.40227 0.0893,-1.60803 -0.30792,-2.73393 l 0,0 z m 23.194638,1.64733 c 6.38921,-0.15991 26.50387,-1.06335 44.69925,-2.00764 18.19537,-0.94429 39.21917,-1.983 46.71955,-2.30825 11.31155,-0.49051 13.74472,-0.72684 14.26841,-1.38586 1.08567,-1.36624 0.72086,-1.83455 -2.35961,-3.02903 l -2.99096,-1.15977 -6.47922,1.25134 c -11.06214,2.13646 -16.68054,2.58926 -41.58203,3.35123 -37.84611,1.15806 -53.12944,1.90611 -62.62946,3.0654 -6.666898,0.81357 -7.071058,0.93049 -7.071058,2.04553 0,0.90527 0.26215,0.9713 2.90418,0.73145 1.59731,-0.14501 8.131728,-0.39449 14.520948,-0.5544 l 0,0 z m 112.37947,-0.62585 c 0,-0.21097 -0.43135,-0.65296 -0.95856,-0.98221 -0.80686,-0.50389 -0.99919,-0.44319 -1.2154,0.38359 -0.20187,0.77194 0.003,0.9822 0.95855,0.9822 0.66847,0 1.21541,-0.17261 1.21541,-0.38358 z M 89.324612,82.96216 c 2.54679,-0.49217 4.44867,-1.07672 4.22639,-1.299 -0.22228,-0.22228 -2.56209,0.12375 -5.19957,0.76895 -25.56008,6.25271 -32.82716,8.10548 -32.82716,8.36942 0,0.16953 6.5632,-1.32363 14.5849,-3.31814 8.02169,-1.99451 16.66864,-4.02906 19.21544,-4.52123 l 0,0 z m 145.841028,4.94077 c -0.95305,-0.95305 -1.10386,-0.387 -0.4992,1.87379 l 0.33138,1.23902 0.5061,-1.13422 c 0.38974,-0.87344 0.31196,-1.32835 -0.33828,-1.97859 z m 12.91683,2.08929 c 2.14668,-0.29424 2.35688,-0.46578 3.46202,-2.8253 0.64711,-1.38162 1.62541,-2.82642 2.174,-3.21066 0.54858,-0.38424 0.89749,-0.79471 0.77536,-0.91214 -0.32559,-0.31306 -26.05658,-9.52829 -36.33502,-13.01293 -4.86136,-1.64812 -11.11168,-3.4515 -13.8896,-4.00752 -4.05364,-0.81136 -43.59275,-4.63942 -44.0701,-4.26674 -0.0707,0.0552 0.24039,0.83967 0.6912,1.74334 1.11854,2.24216 0.72291,6.29848 -0.75888,7.78072 l -1.09394,1.09428 -32.18098,0.1477 -32.180978,0.14771 2.01637,1.12295 c 1.39135,0.77487 2.16616,1.6293 2.49962,2.75648 0.26579,0.89844 0.72916,1.63353 1.029698,1.63353 0.30054,0 4.51513,-0.32974 9.36573,-0.73275 4.85061,-0.40301 18.47888,-1.08774 30.28503,-1.52161 11.80616,-0.43388 24.46417,-0.92222 28.1289,-1.0852 l 6.66315,-0.29634 0.30784,-1.40161 c 0.51522,-2.34575 2.41238,-3.68766 5.58556,-3.9508 2.55466,-0.21186 2.9486,-0.10285 4.29703,1.18904 0.84499,0.80955 1.48454,1.95088 1.48454,2.64931 0,1.21361 0.0373,1.2231 3.40926,0.86788 1.8751,-0.19754 6.36397,-0.81696 9.97526,-1.37651 3.6113,-0.55954 8.72519,-1.1268 11.36422,-1.26058 4.52703,-0.22949 5.06941,-0.14396 9.59645,1.51335 16.80477,6.15208 22.72843,10.22457 22.72843,15.62574 0,2.12121 0.22529,2.19785 4.66983,1.58866 l 0,0 z m -22.72631,-6.49836 c 0.0695,-0.27399 -0.27068,-0.57461 -0.75584,-0.66804 -0.6346,-0.12221 -0.79429,0.059 -0.56912,0.64578 0.32895,0.85722 1.11,0.87035 1.32496,0.0223 z M 78.505242,73.64219 c 4.72246,-0.31007 9.78536,-0.68224 11.2509,-0.82704 l 2.6646,-0.26327 -1.27564,-1.51602 c -1.38146,-1.64176 -1.75732,-5.15059 -0.7528,-7.02756 0.28756,-0.53732 0.33485,-0.97695 0.10507,-0.97695 -0.22977,0 -3.09674,1.01639 -6.37105,2.25865 -6.30485,2.39203 -12.50553,5.38277 -16.39756,7.90896 l -2.35551,1.52887 2.27285,-0.26093 c 1.25006,-0.14352 6.13667,-0.51464 10.85914,-0.82471 z"
         style="fill:#4d4d4d;stroke:#666666;stroke-width:5.3689208;stroke-miterlimit:1;stroke-opacity:1;stroke-dasharray:none" />
    </g>
    <g
       id="layer1-9"
       inkscape:label="Ebene 1"
       transform="translate(531.95967,77.997506)">
      <g
         transform="translate(-240.4163,-127.7843)"
         id="g3019">
        <rect
           style="opacity:0.88999999;fill:#1a1a1a;stroke:#1a1a1a;stroke-width:5.12893295;stroke-miterlimit:1;stroke-opacity:1;stroke-dasharray:none"
           id="rect3115"
           width="0.47033891"
           height="56.568542"
           x="-278.97791"
           y="-242.87846"
           transform="matrix(-0.33955754,-0.94058528,-0.94058528,0.33955754,0,0)"
           inkscape:transform-center-x="29.28088"
           inkscape:transform-center-y="-8.2237327" />
        <rect
           style="opacity:0.88999999;fill:#1a1a1a;stroke:#1a1a1a;stroke-width:5.12893295;stroke-miterlimit:1;stroke-opacity:1;stroke-dasharray:none"
           id="rect3115-4"
           width="0.47033891"
           height="56.568542"
           x="-35.702358"
           y="-367.38278"
           transform="matrix(0.39790818,-0.91742524,-0.91742524,-0.39790818,0,0)" />
        <path
           sodipodi:type="arc"
           style="opacity:0.88999999;fill:#1a1a1a;stroke:#1a1a1a;stroke-width:10.62992096;stroke-miterlimit:1;stroke-opacity:1;stroke-dasharray:none"
           id="path3017"
           sodipodi:cx="154.55334"
           sodipodi:cy="137.16399"
           sodipodi:rx="7.0710678"
           sodipodi:ry="12.626906"
           d="m 161.62441,137.16399 c 0,6.97364 -3.16582,12.6269 -7.07107,12.6269 -3.90524,0 -7.07106,-5.65326 -7.07106,-12.6269 0,-6.97365 3.16582,-12.62691 7.07106,-12.62691 3.90525,0 7.07107,5.65326 7.07107,12.62691 z"
           transform="translate(124.75384,40.406102)" />
      </g>
    </g>
    <g
       id="layer1-4"
       inkscape:label="Ebene 1"
       transform="translate(337.35683,60.845545)">
      <g
         transform="translate(-191.92898,-64.144686)"
         id="g3155">
        <rect
           style="opacity:0.88999999;fill:#1a1a1a;stroke:#1a1a1a;stroke-width:10.62992096;stroke-miterlimit:1;stroke-opacity:1;stroke-dasharray:none"
           id="rect3113"
           width="155.56349"
           height="7.5761442"
           x="227.28432"
           y="110.90002" />
        <rect
           style="opacity:0.88999999;fill:#1a1a1a;stroke:#1a1a1a;stroke-width:10.62992096;stroke-miterlimit:1;stroke-opacity:1;stroke-dasharray:none"
           id="rect3115-7"
           width="2.0203052"
           height="56.568542"
           x="303.04578"
           y="118.47616" />
        <rect
           style="opacity:0.88999999;fill:#1a1a1a;stroke:#1a1a1a;stroke-width:10.62992096;stroke-miterlimit:1;stroke-opacity:1;stroke-dasharray:none"
           id="rect3115-1"
           width="2.0203052"
           height="56.568542"
           x="316.18613"
           y="29.816463"
           transform="matrix(0.95735502,0.28891411,-0.28891411,0.95735502,0,0)" />
        <rect
           style="opacity:0.88999999;fill:#1a1a1a;stroke:#1a1a1a;stroke-width:10.62992096;stroke-miterlimit:1;stroke-opacity:1;stroke-dasharray:none"
           id="rect3115-1-2"
           width="2.0203052"
           height="56.568542"
           x="251.88718"
           y="217.87312"
           transform="matrix(0.94353928,-0.33126066,0.33126066,0.94353928,0,0)"
           inkscape:transform-center-x="24.267081"
           inkscape:transform-center-y="9.5904185" />
      </g>
    </g>
    <g
       id="layer1-2"
       inkscape:label="Ebene 1"
       transform="translate(7.8357486,-23.817083)">
      <path
         d="m 184.99999,87.719322 c 0,15.582318 -17.58881,28.214288 -39.28571,28.214288 -21.6969,0 -39.28571,-12.63197 -39.28571,-28.214288 0,-15.582319 17.58881,-28.214285 39.28571,-28.214285 21.6969,0 39.28571,12.631966 39.28571,28.214285 z"
         sodipodi:ry="28.214285"
         sodipodi:rx="39.285713"
         sodipodi:cy="87.719322"
         sodipodi:cx="145.71428"
         id="path2989"
         style="fill:#4d4d4d;stroke:none"
         sodipodi:type="arc" />
      <path
         d="m 137.14285,82.362183 c 0,2.761423 -2.23857,5 -5,5 -2.76142,0 -5,-2.238577 -5,-5 0,-2.761424 2.23858,-5 5,-5 2.76143,0 5,2.238576 5,5 z"
         sodipodi:ry="5"
         sodipodi:rx="5"
         sodipodi:cy="82.362183"
         sodipodi:cx="132.14285"
         id="path2991"
         style="fill:#ffffff;stroke:none"
         sodipodi:type="arc" />
      <path
         d="m 137.14285,82.362183 c 0,2.761423 -2.23857,5 -5,5 -2.76142,0 -5,-2.238577 -5,-5 0,-2.761424 2.23858,-5 5,-5 2.76143,0 5,2.238576 5,5 z"
         sodipodi:ry="5"
         sodipodi:rx="5"
         sodipodi:cy="82.362183"
         sodipodi:cx="132.14285"
         id="path2991-4"
         style="fill:#ffffff;stroke:none"
         sodipodi:type="arc"
         transform="translate(25.714293,-1.1715003e-6)" />
      <path
         inkscape:connector-curvature="0"
         d="m 144.88328,110.07674 c 0.4196,1.14595 0.74999,2.32209 1.001,3.51577 0.30353,1.49769 0.63774,2.98684 0.84266,4.5021 0.17089,1.42936 0.19818,2.86992 0.21552,4.30767 0.009,1.33615 0.004,2.67236 0.002,4.00853 -0.008,1.36526 -0.12844,2.73484 -0.30364,4.08881 -0.17848,1.14799 -0.27959,2.30396 -0.47269,3.44948 -0.16012,1.03594 -0.39545,2.05684 -0.53568,3.09628 -0.19539,0.76648 -0.28555,1.55455 -0.4543,2.32543 -0.17865,0.86722 -0.30173,1.74188 -0.54426,2.59482 -0.30695,1.05506 -0.52802,2.1293 -0.75745,3.20272 -0.29481,1.43888 -0.45936,2.90357 -0.62884,4.36212 -0.12123,1.54722 -0.31377,3.08726 -0.44368,4.63374 -0.11381,1.4695 -0.13421,2.94376 -0.14722,4.41689 -0.008,1.34388 -0.005,2.68779 -0.003,4.03168 0.001,1.11662 0.002,2.23325 0.003,3.34987 0.0495,1.1455 -0.0416,2.27984 -0.16105,3.41737 -0.13036,1.15366 -0.16302,2.31461 -0.18452,3.47439 -0.0159,1.16927 -0.0148,2.3387 -0.0139,3.50806 0,0 -0.31166,0.15881 -0.31166,0.15881 l 0,0 c -9e-5,-1.16967 -0.002,-2.33939 0.0143,-3.50898 0.0213,-1.16055 0.0519,-2.32243 0.18273,-3.47686 0.11927,-1.13643 0.21353,-2.26925 0.16204,-3.41376 -3.6e-4,-1.11681 -2.1e-4,-2.23363 -0.001,-3.35044 -8.6e-4,-1.3442 -0.003,-2.68841 0.004,-4.0326 0.0129,-1.474 0.0332,-2.94913 0.14667,-4.41952 0.12963,-1.54689 0.32241,-3.08726 0.44347,-4.63487 0.16969,-1.45903 0.33194,-2.92454 0.62545,-4.36414 0.22952,-1.07358 0.44754,-2.1486 0.75444,-3.20393 0.24545,-0.85144 0.36707,-1.72552 0.54403,-2.59233 0.17224,-0.76944 0.25607,-1.55847 0.45664,-2.32328 0.13991,-1.04004 0.37603,-2.06125 0.53595,-3.09773 0.19428,-1.14537 0.29626,-2.30116 0.47502,-3.44914 0.1767,-1.35245 0.2966,-2.72111 0.3059,-4.08496 0.002,-1.33601 0.007,-2.67204 -0.002,-4.00803 -0.0163,-1.43661 -0.0431,-2.87606 -0.21254,-4.30442 -0.20385,-1.51451 -0.53757,-3.00289 -0.84229,-4.49942 -0.25034,-1.19254 -0.57976,-2.36824 -1.00427,-3.51116 0,0 0.30997,-0.16897 0.30997,-0.16897 z"
         id="path3095"
         style="fill:#4d4d4d;stroke:#4d4d4d;stroke-width:10.62992096;stroke-miterlimit:1;stroke-opacity:1;stroke-dasharray:none" />
      <path
         inkscape:connector-curvature="0"
         d="m 142.05415,139.83185 c -1.14284,-0.5545 -2.24468,-1.19118 -3.40991,-1.69881 -1.17092,-0.45336 -2.34602,-0.89172 -3.50747,-1.37011 -0.9833,-0.47225 -1.98536,-0.90213 -3.00248,-1.29525 -1.03721,-0.41188 -2.1156,-0.723 -3.13134,-1.18645 -0.86415,-0.4236 -1.71302,-0.87533 -2.57065,-1.31428 -1.01123,-0.48876 -1.92374,-1.14598 -2.84758,-1.77797 -0.75826,-0.50862 -1.61879,-0.81914 -2.44862,-1.18601 -1.15076,-0.51048 -2.37285,-0.81647 -3.54713,-1.26576 -1.10842,-0.39936 -2.21129,-0.82011 -3.28016,-1.31683 -0.80828,-0.34227 -1.5738,-0.77306 -2.3626,-1.15558 -0.74764,-0.39784 -1.53431,-0.71104 -2.30491,-1.06029 0,0 0.29308,-0.19448 0.29308,-0.19448 l 0,0 c 0.77128,0.34797 1.55677,0.6644 2.30484,1.06149 0.78812,0.38343 1.55483,0.81126 2.36205,1.15521 1.06819,0.49526 2.16892,0.91776 3.27633,1.31646 1.17564,0.44824 2.39921,0.75345 3.55034,1.26573 0.83215,0.36622 1.69399,0.67898 2.45214,1.19145 0.92255,0.63145 1.83368,1.28827 2.84479,1.77445 0.85782,0.43773 1.706,0.88999 2.57027,1.31263 1.01605,0.46101 2.09268,0.77513 3.12991,1.18498 1.01653,0.39489 2.0187,0.82438 3.00224,1.29628 1.16159,0.47789 2.33649,0.91673 3.50683,1.37144 1.16478,0.5102 2.26725,1.14721 3.41364,1.69603 0,0 -0.29361,0.19567 -0.29361,0.19567 z"
         id="path3097"
         style="fill:#4d4d4d;stroke:#4d4d4d;stroke-width:10.62992096;stroke-miterlimit:1;stroke-opacity:1;stroke-dasharray:none" />
      <path
         inkscape:connector-curvature="0"
         d="m 143.97253,138.01761 c 1.16913,0.18991 2.35503,0.23502 3.53682,0.2742 1.49612,0.0387 2.99287,0.0402 4.48939,0.0419 1.06102,1.4e-4 2.12203,-0.002 3.18304,-0.002 0.9803,0.0483 1.94585,-0.0347 2.91565,-0.16457 0.86984,-0.0874 1.74799,-0.18592 2.58606,-0.44407 0.66749,-0.19002 1.29935,-0.47081 1.9352,-0.74404 0.57647,-0.35291 1.20122,-0.61221 1.80397,-0.91452 0.77129,-0.38125 1.5281,-0.77618 2.32604,-1.11183 0.82079,-0.33822 1.66784,-0.60092 2.50944,-0.88067 0.89961,-0.32301 1.7596,-0.73269 2.62079,-1.14377 0.82537,-0.35993 1.65643,-0.7088 2.465,-1.10553 0.59937,-0.35687 1.53462,-0.62022 2.03341,-1.10204 0.54431,-0.34267 0.22337,-0.1493 0.97173,-0.56504 0,0 -0.27442,0.22076 -0.27442,0.22076 l 0,0 c -0.01,8.4e-4 -0.0191,0.002 -0.0287,0.002 -0.11377,0.0714 -0.22754,0.14276 -0.3413,0.21414 -0.85258,0.52703 -1.7176,1.04175 -2.63554,1.44907 -0.80952,0.39383 -1.63942,0.7438 -2.46408,1.10439 -0.8616,0.41199 -1.72364,0.81953 -2.6245,1.14115 -0.84108,0.28028 -1.68817,0.54224 -2.50775,0.88274 -0.40599,0.17014 -0.80926,0.3312 -1.20359,0.52748 -0.25791,0.12838 -0.49237,0.30007 -0.74766,0.43358 -0.11941,0.0624 -0.2494,0.10212 -0.3741,0.15317 -0.60394,0.30018 -1.2252,0.56623 -1.80517,0.91294 -0.6357,0.27449 -1.26996,0.55058 -1.93757,0.74083 -0.84132,0.24966 -1.71766,0.35202 -2.58861,0.4389 -0.97044,0.12905 -1.93725,0.20656 -2.91783,0.16042 -1.06039,9.5e-4 -2.12078,0.002 -3.18117,8.8e-4 -1.49654,-0.002 -2.9933,-0.005 -4.48945,-0.0432 -1.18446,-0.0392 -2.37268,-0.0859 -3.54469,-0.27428 0,0 0.28955,-0.20315 0.28955,-0.20315 z"
         id="path3099"
         style="fill:#4d4d4d;stroke:#4d4d4d;stroke-width:10.62992096;stroke-miterlimit:1;stroke-opacity:1;stroke-dasharray:none" />
      <path
         inkscape:connector-curvature="0"
         d="m 142.82,172.6007 c -0.91765,0.34779 -1.78872,0.78612 -2.65663,1.24171 -0.78574,0.45006 -1.56338,0.91688 -2.3684,1.33228 -0.77072,0.46689 -1.65896,0.65725 -2.52026,0.8853 -0.98871,0.27902 -1.95195,0.62648 -2.96055,0.82932 -0.98279,0.16249 -1.977,0.19332 -2.96391,0.3233 -1.03584,0.1706 -2.08858,0.15904 -3.12896,0.2772 -1.12771,0.15944 -2.26308,0.24317 -3.40012,0.29563 -1.21403,0.0491 -2.41736,0.2235 -3.63087,0.29864 -1.24282,0.12817 -2.48114,0.29274 -3.72708,0.38911 -0.83874,0.0435 -1.67123,0.0491 -2.50311,0.17044 -0.51122,0.0862 -1.02742,0.11742 -1.53255,0.2341 0,0 0.28058,-0.21351 0.28058,-0.21351 l 0,0 c 0.50617,-0.11105 1.0222,-0.14601 1.53337,-0.23128 0.83207,-0.11915 1.66543,-0.12226 2.50387,-0.16811 1.24513,-0.0966 2.48277,-0.26067 3.725,-0.38694 1.21399,-0.0773 2.41815,-0.25224 3.6331,-0.29957 1.13667,-0.0528 2.27143,-0.13838 3.39878,-0.29747 1.04068,-0.11441 2.09292,-0.10762 3.12867,-0.27781 0.98645,-0.12884 1.98072,-0.15865 2.96235,-0.32519 1.00746,-0.20662 1.97095,-0.55439 2.95999,-0.83153 0.86069,-0.22997 1.74632,-0.42255 2.51598,-0.89167 0.80384,-0.41808 1.58246,-0.87918 2.36749,-1.33176 0.86942,-0.45461 1.74303,-0.88958 2.65919,-1.24291 0,0 -0.27593,0.22072 -0.27593,0.22072 z"
         id="path3101"
         style="fill:#4d4d4d;stroke:#4d4d4d;stroke-width:10.62992096;stroke-miterlimit:1;stroke-opacity:1;stroke-dasharray:none" />
      <path
         inkscape:connector-curvature="0"
         d="m 143.3005,176.23172 c 1.05246,0.0544 2.04549,0.35283 3.04614,0.65395 0.75986,0.18128 1.50306,0.30082 2.21588,0.62833 0.94601,0.30187 1.92168,0.51502 2.87926,0.8005 1.39704,0.41503 2.77035,0.89361 4.14058,1.38968 1.07378,0.32251 2.04776,0.87665 3.12,1.19995 1.0074,0.27592 2.00454,0.59647 3.03062,0.79768 0.81468,0.23472 1.65116,0.35856 2.46337,0.59938 0.10841,0.0293 0.21683,0.0585 0.32525,0.0878 0,0 -0.29072,0.19968 -0.29072,0.19968 l 0,0 c -0.10851,-0.0295 -0.21703,-0.0591 -0.32554,-0.0886 -0.81095,-0.23994 -1.6465,-0.36397 -2.45988,-0.59781 -1.02634,-0.204 -2.02445,-0.52447 -3.03275,-0.80045 -1.07072,-0.32695 -2.04547,-0.87978 -3.11878,-1.20301 -1.3699,-0.49556 -2.74242,-0.97506 -4.13973,-1.38779 -0.95988,-0.28438 -1.93966,-0.49316 -2.88571,-0.80212 -0.71108,-0.32523 -1.45602,-0.43801 -2.21158,-0.62541 -0.99983,-0.30212 -1.99324,-0.59488 -3.04503,-0.64826 0,0 0.28862,-0.2035 0.28862,-0.2035 z"
         id="path3111"
         style="fill:#4d4d4d;stroke:#4d4d4d;stroke-width:10.62992096;stroke-miterlimit:1;stroke-opacity:1;stroke-dasharray:none" />
      <path
         inkscape:connector-curvature="0"
         d="m 165.04395,182.66047 c 0.74492,0.18487 1.50113,0.28115 2.25455,0.41428 0.5782,0.15448 1.17944,0.16156 1.76363,0.27392 0.56889,0.13839 1.14719,0.22074 1.72915,0.27716 0,0 -0.28714,0.20436 -0.28714,0.20436 l 0,0 c -0.58263,-0.0579 -1.16125,-0.14259 -1.73122,-0.2795 -0.58502,-0.10755 -1.18527,-0.12081 -1.76369,-0.27327 -0.75477,-0.12868 -1.50785,-0.23902 -2.25482,-0.4138 0,0 0.28954,-0.20315 0.28954,-0.20315 z"
         id="path3113"
         style="fill:#4d4d4d;stroke:#4d4d4d;stroke-width:10.62992096;stroke-miterlimit:1;stroke-opacity:1;stroke-dasharray:none" />
      <path
         inkscape:connector-curvature="0"
         d="m 139.72763,174.0441 c 0.68135,-0.0181 1.35872,0.0864 2.03388,0.16424 0,0 -0.28567,0.20258 -0.28567,0.20258 l 0,0 c -0.6751,-0.0778 -1.35259,-0.18045 -2.03395,-0.15922 0,0 0.28574,-0.2076 0.28574,-0.2076 z"
         id="path3117"
         style="fill:#4d4d4d;stroke:#4d4d4d;stroke-width:10.62992096;stroke-miterlimit:1;stroke-opacity:1;stroke-dasharray:none" />
      <path
         inkscape:connector-curvature="0"
         d="m 137.94798,174.96146 c 1.20293,0.10973 2.35916,0.45686 3.53899,0.69349 0.92129,0.15098 1.79651,0.4689 2.71976,0.6192 0.52593,0.16408 1.05152,0.31888 1.58982,0.43665 0,0 -0.41039,0.28474 -0.41039,0.28474 l 0,0 c -0.53696,-0.11976 -1.06113,-0.2769 -1.58798,-0.43464 -0.92221,-0.15394 -1.79808,-0.47163 -2.71961,-0.62148 -1.17938,-0.23937 -2.33664,-0.58332 -3.54007,-0.69066 0,0 0.40948,-0.2873 0.40948,-0.2873 z"
         id="path3125"
         style="fill:#4d4d4d;stroke:#4d4d4d;stroke-width:10.62992096;stroke-miterlimit:1;stroke-opacity:1;stroke-dasharray:none" />
    </g>
  </g>
</svg>
