<?xml version="1.0" encoding="UTF-8" standalone="no"?>
<!-- Created with Inkscape (http://www.inkscape.org/) -->

<svg
   xmlns:dc="http://purl.org/dc/elements/1.1/"
   xmlns:cc="http://creativecommons.org/ns#"
   xmlns:rdf="http://www.w3.org/1999/02/22-rdf-syntax-ns#"
   xmlns:svg="http://www.w3.org/2000/svg"
   xmlns="http://www.w3.org/2000/svg"
   xmlns:sodipodi="http://sodipodi.sourceforge.net/DTD/sodipodi-0.dtd"
   xmlns:inkscape="http://www.inkscape.org/namespaces/inkscape"
   width="210mm"
   height="297mm"
   id="svg2"
   version="1.1"
   inkscape:version="0.48.0 r9654"
   sodipodi:docname="Neues Dokument 1">
  <defs
     id="defs4" />
  <sodipodi:namedview
     id="base"
     pagecolor="#ffffff"
     bordercolor="#666666"
     borderopacity="1.0"
     inkscape:pageopacity="0.0"
     inkscape:pageshadow="2"
     inkscape:zoom="1.979899"
     inkscape:cx="175.73242"
     inkscape:cy="904.377"
     inkscape:document-units="px"
     inkscape:current-layer="layer1"
     showgrid="false"
     inkscape:window-width="1366"
     inkscape:window-height="720"
     inkscape:window-x="0"
     inkscape:window-y="26"
     inkscape:window-maximized="1" />
  <metadata
     id="metadata7">
    <rdf:RDF>
      <cc:Work
         rdf:about="">
        <dc:format>image/svg+xml</dc:format>
        <dc:type
           rdf:resource="http://purl.org/dc/dcmitype/StillImage" />
        <dc:title></dc:title>
      </cc:Work>
    </rdf:RDF>
  </metadata>
  <g
     inkscape:label="Ebene 1"
     inkscape:groupmode="layer"
     id="layer1">
    <path
       sodipodi:type="arc"
       style="fill:#4d4d4d;stroke:none"
       id="path2989"
       sodipodi:cx="145.71428"
       sodipodi:cy="87.719322"
       sodipodi:rx="39.285713"
       sodipodi:ry="28.214285"
       d="m 184.99999,87.719322 a 39.285713,28.214285 0 1 1 -78.57142,0 39.285713,28.214285 0 1 1 78.57142,0 z" />
    <path
       sodipodi:type="arc"
       style="fill:#ffffff;stroke:none"
       id="path2991"
       sodipodi:cx="132.14285"
       sodipodi:cy="82.362183"
       sodipodi:rx="5"
       sodipodi:ry="5"
       d="m 137.14285,82.362183 a 5,5 0 1 1 -10,0 5,5 0 1 1 10,0 z" />
    <path
       transform="translate(25.714293,-1.1715003e-6)"
       sodipodi:type="arc"
       style="fill:#ffffff;stroke:none"
       id="path2991-4"
       sodipodi:cx="132.14285"
       sodipodi:cy="82.362183"
       sodipodi:rx="5"
       sodipodi:ry="5"
       d="m 137.14285,82.362183 a 5,5 0 1 1 -10,0 5,5 0 1 1 10,0 z" />
    <path
       style="fill:#4d4d4d;stroke:#4d4d4d;stroke-width:10.62992096;stroke-miterlimit:1;stroke-opacity:1;stroke-dasharray:none"
       id="path3095"
       d="m 144.88328,110.07674 c 0.4196,1.14595 0.74999,2.32209 1.001,3.51577 0.30353,1.49769 0.63774,2.98684 0.84266,4.5021 0.17089,1.42936 0.19818,2.86992 0.21552,4.30767 0.009,1.33615 0.004,2.67236 0.002,4.00853 -0.008,1.36526 -0.12844,2.73484 -0.30364,4.08881 -0.17848,1.14799 -0.27959,2.30396 -0.47269,3.44948 -0.16012,1.03594 -0.39545,2.05684 -0.53568,3.09628 -0.19539,0.76648 -0.28555,1.55455 -0.4543,2.32543 -0.17865,0.86722 -0.30173,1.74188 -0.54426,2.59482 -0.30695,1.05506 -0.52802,2.1293 -0.75745,3.20272 -0.29481,1.43888 -0.45936,2.90357 -0.62884,4.36212 -0.12123,1.54722 -0.31377,3.08726 -0.44368,4.63374 -0.11381,1.4695 -0.13421,2.94376 -0.14722,4.41689 -0.008,1.34388 -0.005,2.68779 -0.003,4.03168 0.001,1.11662 0.002,2.23325 0.003,3.34987 0.0495,1.1455 -0.0416,2.27984 -0.16105,3.41737 -0.13036,1.15366 -0.16302,2.31461 -0.18452,3.47439 -0.0159,1.16927 -0.0148,2.3387 -0.0139,3.50806 0,0 -0.31166,0.15881 -0.31166,0.15881 l 0,0 c -9e-5,-1.16967 -0.002,-2.33939 0.0143,-3.50898 0.0213,-1.16055 0.0519,-2.32243 0.18273,-3.47686 0.11927,-1.13643 0.21353,-2.26925 0.16204,-3.41376 -3.6e-4,-1.11681 -2.1e-4,-2.23363 -0.001,-3.35044 -8.6e-4,-1.3442 -0.003,-2.68841 0.004,-4.0326 0.0129,-1.474 0.0332,-2.94913 0.14667,-4.41952 0.12963,-1.54689 0.32241,-3.08726 0.44347,-4.63487 0.16969,-1.45903 0.33194,-2.92454 0.62545,-4.36414 0.22952,-1.07358 0.44754,-2.1486 0.75444,-3.20393 0.24545,-0.85144 0.36707,-1.72552 0.54403,-2.59233 0.17224,-0.76944 0.25607,-1.55847 0.45664,-2.32328 0.13991,-1.04004 0.37603,-2.06125 0.53595,-3.09773 0.19428,-1.14537 0.29626,-2.30116 0.47502,-3.44914 0.1767,-1.35245 0.2966,-2.72111 0.3059,-4.08496 0.002,-1.33601 0.007,-2.67204 -0.002,-4.00803 -0.0163,-1.43661 -0.0431,-2.87606 -0.21254,-4.30442 -0.20385,-1.51451 -0.53757,-3.00289 -0.84229,-4.49942 -0.25034,-1.19254 -0.57976,-2.36824 -1.00427,-3.51116 0,0 0.30997,-0.16897 0.30997,-0.16897 z"
       inkscape:connector-curvature="0" />
    <path
       style="fill:#4d4d4d;stroke:#4d4d4d;stroke-width:10.62992096;stroke-miterlimit:1;stroke-opacity:1;stroke-dasharray:none"
       id="path3097"
       d="m 142.05415,139.83185 c -1.14284,-0.5545 -2.24468,-1.19118 -3.40991,-1.69881 -1.17092,-0.45336 -2.34602,-0.89172 -3.50747,-1.37011 -0.9833,-0.47225 -1.98536,-0.90213 -3.00248,-1.29525 -1.03721,-0.41188 -2.1156,-0.723 -3.13134,-1.18645 -0.86415,-0.4236 -1.71302,-0.87533 -2.57065,-1.31428 -1.01123,-0.48876 -1.92374,-1.14598 -2.84758,-1.77797 -0.75826,-0.50862 -1.61879,-0.81914 -2.44862,-1.18601 -1.15076,-0.51048 -2.37285,-0.81647 -3.54713,-1.26576 -1.10842,-0.39936 -2.21129,-0.82011 -3.28016,-1.31683 -0.80828,-0.34227 -1.5738,-0.77306 -2.3626,-1.15558 -0.74764,-0.39784 -1.53431,-0.71104 -2.30491,-1.06029 0,0 0.29308,-0.19448 0.29308,-0.19448 l 0,0 c 0.77128,0.34797 1.55677,0.6644 2.30484,1.06149 0.78812,0.38343 1.55483,0.81126 2.36205,1.15521 1.06819,0.49526 2.16892,0.91776 3.27633,1.31646 1.17564,0.44824 2.39921,0.75345 3.55034,1.26573 0.83215,0.36622 1.69399,0.67898 2.45214,1.19145 0.92255,0.63145 1.83368,1.28827 2.84479,1.77445 0.85782,0.43773 1.706,0.88999 2.57027,1.31263 1.01605,0.46101 2.09268,0.77513 3.12991,1.18498 1.01653,0.39489 2.0187,0.82438 3.00224,1.29628 1.16159,0.47789 2.33649,0.91673 3.50683,1.37144 1.16478,0.5102 2.26725,1.14721 3.41364,1.69603 0,0 -0.29361,0.19567 -0.29361,0.19567 z"
       inkscape:connector-curvature="0" />
    <path
       style="fill:#4d4d4d;stroke:#4d4d4d;stroke-width:10.62992096;stroke-miterlimit:1;stroke-opacity:1;stroke-dasharray:none"
       id="path3099"
       d="m 143.97253,138.01761 c 1.16913,0.18991 2.35503,0.23502 3.53682,0.2742 1.49612,0.0387 2.99287,0.0402 4.48939,0.0419 1.06102,1.4e-4 2.12203,-0.002 3.18304,-0.002 0.9803,0.0483 1.94585,-0.0347 2.91565,-0.16457 0.86984,-0.0874 1.74799,-0.18592 2.58606,-0.44407 0.66749,-0.19002 1.29935,-0.47081 1.9352,-0.74404 0.57647,-0.35291 1.20122,-0.61221 1.80397,-0.91452 0.77129,-0.38125 1.5281,-0.77618 2.32604,-1.11183 0.82079,-0.33822 1.66784,-0.60092 2.50944,-0.88067 0.89961,-0.32301 1.7596,-0.73269 2.62079,-1.14377 0.82537,-0.35993 1.65643,-0.7088 2.465,-1.10553 0.59937,-0.35687 1.53462,-0.62022 2.03341,-1.10204 0.54431,-0.34267 0.22337,-0.1493 0.97173,-0.56504 0,0 -0.27442,0.22076 -0.27442,0.22076 l 0,0 c -0.01,8.4e-4 -0.0191,0.002 -0.0287,0.002 -0.11377,0.0714 -0.22754,0.14276 -0.3413,0.21414 -0.85258,0.52703 -1.7176,1.04175 -2.63554,1.44907 -0.80952,0.39383 -1.63942,0.7438 -2.46408,1.10439 -0.8616,0.41199 -1.72364,0.81953 -2.6245,1.14115 -0.84108,0.28028 -1.68817,0.54224 -2.50775,0.88274 -0.40599,0.17014 -0.80926,0.3312 -1.20359,0.52748 -0.25791,0.12838 -0.49237,0.30007 -0.74766,0.43358 -0.11941,0.0624 -0.2494,0.10212 -0.3741,0.15317 -0.60394,0.30018 -1.2252,0.56623 -1.80517,0.91294 -0.6357,0.27449 -1.26996,0.55058 -1.93757,0.74083 -0.84132,0.24966 -1.71766,0.35202 -2.58861,0.4389 -0.97044,0.12905 -1.93725,0.20656 -2.91783,0.16042 -1.06039,9.5e-4 -2.12078,0.002 -3.18117,8.8e-4 -1.49654,-0.002 -2.9933,-0.005 -4.48945,-0.0432 -1.18446,-0.0392 -2.37268,-0.0859 -3.54469,-0.27428 0,0 0.28955,-0.20315 0.28955,-0.20315 z"
       inkscape:connector-curvature="0" />
    <path
       style="fill:#4d4d4d;stroke:#4d4d4d;stroke-width:10.62992096;stroke-miterlimit:1;stroke-opacity:1;stroke-dasharray:none"
       id="path3101"
       d="m 142.82,172.6007 c -0.91765,0.34779 -1.78872,0.78612 -2.65663,1.24171 -0.78574,0.45006 -1.56338,0.91688 -2.3684,1.33228 -0.77072,0.46689 -1.65896,0.65725 -2.52026,0.8853 -0.98871,0.27902 -1.95195,0.62648 -2.96055,0.82932 -0.98279,0.16249 -1.977,0.19332 -2.96391,0.3233 -1.03584,0.1706 -2.08858,0.15904 -3.12896,0.2772 -1.12771,0.15944 -2.26308,0.24317 -3.40012,0.29563 -1.21403,0.0491 -2.41736,0.2235 -3.63087,0.29864 -1.24282,0.12817 -2.48114,0.29274 -3.72708,0.38911 -0.83874,0.0435 -1.67123,0.0491 -2.50311,0.17044 -0.51122,0.0862 -1.02742,0.11742 -1.53255,0.2341 0,0 0.28058,-0.21351 0.28058,-0.21351 l 0,0 c 0.50617,-0.11105 1.0222,-0.14601 1.53337,-0.23128 0.83207,-0.11915 1.66543,-0.12226 2.50387,-0.16811 1.24513,-0.0966 2.48277,-0.26067 3.725,-0.38694 1.21399,-0.0773 2.41815,-0.25224 3.6331,-0.29957 1.13667,-0.0528 2.27143,-0.13838 3.39878,-0.29747 1.04068,-0.11441 2.09292,-0.10762 3.12867,-0.27781 0.98645,-0.12884 1.98072,-0.15865 2.96235,-0.32519 1.00746,-0.20662 1.97095,-0.55439 2.95999,-0.83153 0.86069,-0.22997 1.74632,-0.42255 2.51598,-0.89167 0.80384,-0.41808 1.58246,-0.87918 2.36749,-1.33176 0.86942,-0.45461 1.74303,-0.88958 2.65919,-1.24291 0,0 -0.27593,0.22072 -0.27593,0.22072 z"
       inkscape:connector-curvature="0" />
    <path
       style="fill:#4d4d4d;stroke:#4d4d4d;stroke-width:10.62992096;stroke-miterlimit:1;stroke-opacity:1;stroke-dasharray:none"
       id="path3111"
       d="m 143.3005,176.23172 c 1.05246,0.0544 2.04549,0.35283 3.04614,0.65395 0.75986,0.18128 1.50306,0.30082 2.21588,0.62833 0.94601,0.30187 1.92168,0.51502 2.87926,0.8005 1.39704,0.41503 2.77035,0.89361 4.14058,1.38968 1.07378,0.32251 2.04776,0.87665 3.12,1.19995 1.0074,0.27592 2.00454,0.59647 3.03062,0.79768 0.81468,0.23472 1.65116,0.35856 2.46337,0.59938 0.10841,0.0293 0.21683,0.0585 0.32525,0.0878 0,0 -0.29072,0.19968 -0.29072,0.19968 l 0,0 c -0.10851,-0.0295 -0.21703,-0.0591 -0.32554,-0.0886 -0.81095,-0.23994 -1.6465,-0.36397 -2.45988,-0.59781 -1.02634,-0.204 -2.02445,-0.52447 -3.03275,-0.80045 -1.07072,-0.32695 -2.04547,-0.87978 -3.11878,-1.20301 -1.3699,-0.49556 -2.74242,-0.97506 -4.13973,-1.38779 -0.95988,-0.28438 -1.93966,-0.49316 -2.88571,-0.80212 -0.71108,-0.32523 -1.45602,-0.43801 -2.21158,-0.62541 -0.99983,-0.30212 -1.99324,-0.59488 -3.04503,-0.64826 0,0 0.28862,-0.2035 0.28862,-0.2035 z"
       inkscape:connector-curvature="0" />
    <path
       style="fill:#4d4d4d;stroke:#4d4d4d;stroke-width:10.62992096;stroke-miterlimit:1;stroke-opacity:1;stroke-dasharray:none"
       id="path3113"
       d="m 165.04395,182.66047 c 0.74492,0.18487 1.50113,0.28115 2.25455,0.41428 0.5782,0.15448 1.17944,0.16156 1.76363,0.27392 0.56889,0.13839 1.14719,0.22074 1.72915,0.27716 0,0 -0.28714,0.20436 -0.28714,0.20436 l 0,0 c -0.58263,-0.0579 -1.16125,-0.14259 -1.73122,-0.2795 -0.58502,-0.10755 -1.18527,-0.12081 -1.76369,-0.27327 -0.75477,-0.12868 -1.50785,-0.23902 -2.25482,-0.4138 0,0 0.28954,-0.20315 0.28954,-0.20315 z"
       inkscape:connector-curvature="0" />
    <path
       style="fill:#4d4d4d;stroke:#4d4d4d;stroke-width:10.62992096;stroke-miterlimit:1;stroke-opacity:1;stroke-dasharray:none"
       id="path3117"
       d="m 139.72763,174.0441 c 0.68135,-0.0181 1.35872,0.0864 2.03388,0.16424 0,0 -0.28567,0.20258 -0.28567,0.20258 l 0,0 c -0.6751,-0.0778 -1.35259,-0.18045 -2.03395,-0.15922 0,0 0.28574,-0.2076 0.28574,-0.2076 z"
       inkscape:connector-curvature="0" />
    <path
       style="fill:#4d4d4d;stroke:#4d4d4d;stroke-width:10.62992096;stroke-miterlimit:1;stroke-opacity:1;stroke-dasharray:none"
       id="path3125"
       d="m 137.94798,174.96146 c 1.20293,0.10973 2.35916,0.45686 3.53899,0.69349 0.92129,0.15098 1.79651,0.4689 2.71976,0.6192 0.52593,0.16408 1.05152,0.31888 1.58982,0.43665 0,0 -0.41039,0.28474 -0.41039,0.28474 l 0,0 c -0.53696,-0.11976 -1.06113,-0.2769 -1.58798,-0.43464 -0.92221,-0.15394 -1.79808,-0.47163 -2.71961,-0.62148 -1.17938,-0.23937 -2.33664,-0.58332 -3.54007,-0.69066 0,0 0.40948,-0.2873 0.40948,-0.2873 z"
       inkscape:connector-curvature="0" />
  </g>
</svg>
