<?xml version="1.0" encoding="UTF-8" standalone="no"?>
<!-- Created with Inkscape (http://www.inkscape.org/) -->

<svg
   xmlns:dc="http://purl.org/dc/elements/1.1/"
   xmlns:cc="http://creativecommons.org/ns#"
   xmlns:rdf="http://www.w3.org/1999/02/22-rdf-syntax-ns#"
   xmlns:svg="http://www.w3.org/2000/svg"
   xmlns="http://www.w3.org/2000/svg"
   xmlns:sodipodi="http://sodipodi.sourceforge.net/DTD/sodipodi-0.dtd"
   xmlns:inkscape="http://www.inkscape.org/namespaces/inkscape"
   id="svg2"
   version="1.1"
   inkscape:version="0.91 r13725"
   xml:space="preserve"
   width="576.25"
   height="165"
   viewBox="0 0 576.25 165"
   sodipodi:docname="sync_distributed.svg"><metadata
     id="metadata8"><rdf:RDF><cc:Work
         rdf:about=""><dc:format>image/svg+xml</dc:format><dc:type
           rdf:resource="http://purl.org/dc/dcmitype/StillImage" /><dc:title></dc:title></cc:Work></rdf:RDF></metadata><defs
     id="defs6" /><sodipodi:namedview
     pagecolor="#ffffff"
     bordercolor="#666666"
     borderopacity="1"
     objecttolerance="10"
     gridtolerance="10"
     guidetolerance="10"
     inkscape:pageopacity="0"
     inkscape:pageshadow="2"
     inkscape:window-width="1366"
     inkscape:window-height="725"
     id="namedview4"
     showgrid="false"
     inkscape:zoom="2.1067245"
     inkscape:cx="288.125"
     inkscape:cy="82.5"
     inkscape:window-x="0"
     inkscape:window-y="28"
     inkscape:window-maximized="1"
     inkscape:current-layer="g10" /><g
     id="g10"
     inkscape:groupmode="layer"
     inkscape:label="sync_distributed"
     transform="matrix(1.25,0,0,-1.25,0,165)"><g
       id="g12" /><g
       id="g14"><path
         d="m 133.8866,6.009369 45,0 0,11 -45,0 0,-11 z"
         style="fill:#ffffff;fill-opacity:1;fill-rule:nonzero;stroke:none"
         id="path16"
         inkscape:connector-curvature="0" /><g
         id="g18"
         transform="matrix(1,0,0,-1,155.8866,12.00937)"><text
           transform="translate(-17.00244,3.5)"
           style="font-variant:normal;font-weight:normal;font-size:9px;font-family:Helvetica;-inkscape-font-specification:Helvetica;writing-mode:lr-tb;fill:#000000;fill-opacity:1;fill-rule:nonzero;stroke:none"
           id="text20"><tspan
             x="0"
             y="0"
             sodipodi:role="line"
             id="tspan22">REQ (12)</tspan></text>
</g><path
         d="m 26.0355,69.1219 42,0 0,11 -42,0 0,-11 z"
         style="fill:#ffffff;fill-opacity:1;fill-rule:nonzero;stroke:none"
         id="path24"
         inkscape:connector-curvature="0" /><g
         id="g26"
         transform="matrix(1,0,0,-1,46.5355,75.1219)"><text
           transform="translate(-15.75,3.5)"
           style="font-variant:normal;font-weight:normal;font-size:9px;font-family:Helvetica;-inkscape-font-specification:Helvetica;writing-mode:lr-tb;fill:#000000;fill-opacity:1;fill-rule:nonzero;stroke:none"
           id="text28"><tspan
             x="0"
             y="0"
             sodipodi:role="line"
             id="tspan30">REQ (8)</tspan></text>
</g><g
         id="g32"
         transform="matrix(1,0,0,-1,-10.5,143.5)"><path
           d="m 190.467,14.36169 0,127.55931"
           style="fill:none;stroke:#000000;stroke-width:1;stroke-linecap:round;stroke-linejoin:round;stroke-miterlimit:10;stroke-dasharray:none;stroke-opacity:1"
           id="path34"
           inkscape:connector-curvature="0" /></g><path
         d="m 96.19643,111.0023 c 5.53507,-5.535 5.53507,-14.50895 0,-20.04394 -5.53499,-5.53502 -14.50898,-5.53502 -20.04397,0 -5.53503,5.53499 -5.53503,14.50894 0,20.04394 5.53499,5.5351 14.50898,5.5351 20.04397,0"
         style="fill:#ffffff;fill-opacity:1;fill-rule:nonzero;stroke:none"
         id="path36"
         inkscape:connector-curvature="0" /><g
         id="g38"
         transform="matrix(1,0,0,-1,-10.5,143.5)"><path
           d="m 106.6964,32.49766 c 5.5351,5.53499 5.5351,14.50899 0,20.04398 -5.535,5.53502 -14.50895,5.53502 -20.04394,0 -5.53503,-5.53499 -5.53503,-14.50899 0,-20.04398 5.53499,-5.53503 14.50894,-5.53503 20.04394,0"
           style="fill:none;stroke:#000000;stroke-width:1;stroke-linecap:round;stroke-linejoin:round;stroke-miterlimit:10;stroke-dasharray:none;stroke-opacity:1"
           id="path40"
           inkscape:connector-curvature="0" /></g><g
         id="g42"
         transform="matrix(1,0,0,-1,85.67445,101.4803)"><text
           transform="translate(-5.005371,7)"
           style="font-variant:normal;font-weight:normal;font-size:18px;font-family:Helvetica;-inkscape-font-specification:Helvetica;writing-mode:lr-tb;fill:#000000;fill-opacity:1;fill-rule:nonzero;stroke:none"
           id="text44"><tspan
             x="0"
             y="0"
             id="tspan46">0</tspan></text>
</g><path
         d="m 138.7162,40.13624 c 5.5351,-5.535 5.5351,-14.50898 0,-20.04398 -5.5349,-5.53502 -14.5089,-5.53502 -20.0439,0 -5.5351,5.535 -5.5351,14.50898 0,20.04398 5.535,5.53502 14.509,5.53502 20.0439,0"
         style="fill:#ffffff;fill-opacity:1;fill-rule:nonzero;stroke:none"
         id="path48"
         inkscape:connector-curvature="0" /><g
         id="g50"
         transform="matrix(1,0,0,-1,-10.5,143.5)"><path
           d="m 149.2162,103.3638 c 5.5351,5.535 5.5351,14.5089 0,20.0439 -5.5349,5.5351 -14.5089,5.5351 -20.0439,0 -5.5351,-5.535 -5.5351,-14.5089 0,-20.0439 5.535,-5.53506 14.509,-5.53506 20.0439,0"
           style="fill:none;stroke:#000000;stroke-width:1;stroke-linecap:round;stroke-linejoin:round;stroke-miterlimit:10;stroke-dasharray:none;stroke-opacity:1"
           id="path52"
           inkscape:connector-curvature="0" /></g><g
         id="g54"
         transform="matrix(1,0,0,-1,128.1943,30.61425)"><text
           transform="translate(-5.005386,7)"
           style="font-variant:normal;font-weight:normal;font-size:18px;font-family:Helvetica;-inkscape-font-specification:Helvetica;writing-mode:lr-tb;fill:#000000;fill-opacity:1;fill-rule:nonzero;stroke:none"
           id="text56"><tspan
             x="0"
             y="0"
             id="tspan58">2</tspan></text>
</g><g
         id="g60"
         transform="matrix(1,0,0,-1,-10.5,143.5)"><path
           d="m 338.072,14.1732 0,127.5588"
           style="fill:none;stroke:#000000;stroke-width:1;stroke-linecap:round;stroke-linejoin:round;stroke-miterlimit:10;stroke-dasharray:none;stroke-opacity:1"
           id="path62"
           inkscape:connector-curvature="0" /></g><path
         d="m 53.67673,40.13614 c 5.53503,-5.53499 5.53503,-14.50899 0,-20.04398 -5.53499,-5.53502 -14.50898,-5.53502 -20.04397,0 -5.53503,5.53499 -5.53503,14.50899 0,20.04398 5.53499,5.53503 14.50898,5.53503 20.04397,0"
         style="fill:#ffffff;fill-opacity:1;fill-rule:nonzero;stroke:none"
         id="path64"
         inkscape:connector-curvature="0" /><g
         id="g66"
         transform="matrix(1,0,0,-1,-10.5,143.5)"><path
           d="m 64.17673,103.3639 c 5.53503,5.5349 5.53503,14.5089 0,20.0439 -5.53499,5.5351 -14.50898,5.5351 -20.04397,0 -5.53503,-5.535 -5.53503,-14.509 0,-20.0439 5.53499,-5.53507 14.50898,-5.53507 20.04397,0"
           style="fill:none;stroke:#000000;stroke-width:1;stroke-linecap:round;stroke-linejoin:round;stroke-miterlimit:10;stroke-dasharray:none;stroke-opacity:1"
           id="path68"
           inkscape:connector-curvature="0" /></g><g
         id="g70"
         transform="matrix(1,0,0,-1,43.15475,30.61415)"><text
           transform="translate(-5.005367,7)"
           style="font-variant:normal;font-weight:normal;font-size:18px;font-family:Helvetica;-inkscape-font-specification:Helvetica;writing-mode:lr-tb;fill:#000000;fill-opacity:1;fill-rule:nonzero;stroke:none"
           id="text72"><tspan
             x="0"
             y="0"
             id="tspan74">1</tspan></text>
</g><path
         d="m 264.8972,111.0023 c 5.5351,-5.535 5.5351,-14.50895 0,-20.04394 -5.535,-5.53502 -14.509,-5.53502 -20.0439,0 -5.5351,5.53499 -5.5351,14.50894 0,20.04394 5.5349,5.5351 14.5089,5.5351 20.0439,0"
         style="fill:#ffffff;fill-opacity:1;fill-rule:nonzero;stroke:none"
         id="path76"
         inkscape:connector-curvature="0" /><g
         id="g78"
         transform="matrix(1,0,0,-1,-10.5,143.5)"><path
           d="m 275.3972,32.49766 c 5.5351,5.53499 5.5351,14.50899 0,20.04398 -5.535,5.53502 -14.509,5.53502 -20.0439,0 -5.5351,-5.53499 -5.5351,-14.50899 0,-20.04398 5.5349,-5.53503 14.5089,-5.53503 20.0439,0"
           style="fill:none;stroke:#000000;stroke-width:1;stroke-linecap:round;stroke-linejoin:round;stroke-miterlimit:10;stroke-dasharray:none;stroke-opacity:1"
           id="path80"
           inkscape:connector-curvature="0" /></g><g
         id="g82"
         transform="matrix(1,0,0,-1,254.3752,101.4803)"><text
           transform="translate(-5.005371,7)"
           style="font-variant:normal;font-weight:normal;font-size:18px;font-family:Helvetica;-inkscape-font-specification:Helvetica;writing-mode:lr-tb;fill:#000000;fill-opacity:1;fill-rule:nonzero;stroke:none"
           id="text84"><tspan
             x="0"
             y="0"
             id="tspan86">0</tspan></text>
</g><path
         d="m 307.4163,40.13624 c 5.535,-5.535 5.535,-14.50898 0,-20.04398 -5.535,-5.53502 -14.509,-5.53502 -20.044,0 -5.5351,5.535 -5.5351,14.50898 0,20.04398 5.535,5.53502 14.509,5.53502 20.044,0"
         style="fill:#ffffff;fill-opacity:1;fill-rule:nonzero;stroke:none"
         id="path88"
         inkscape:connector-curvature="0" /><g
         id="g90"
         transform="matrix(1,0,0,-1,-10.5,143.5)"><path
           d="m 317.9163,103.3638 c 5.535,5.535 5.535,14.5089 0,20.0439 -5.535,5.5351 -14.509,5.5351 -20.044,0 -5.5351,-5.535 -5.5351,-14.5089 0,-20.0439 5.535,-5.53506 14.509,-5.53506 20.044,0"
           style="fill:none;stroke:#000000;stroke-width:1;stroke-linecap:round;stroke-linejoin:round;stroke-miterlimit:10;stroke-dasharray:none;stroke-opacity:1"
           id="path92"
           inkscape:connector-curvature="0" /></g><g
         id="g94"
         transform="matrix(1,0,0,-1,296.8943,30.61425)"><text
           transform="translate(-5.005371,7)"
           style="font-variant:normal;font-weight:normal;font-size:18px;font-family:Helvetica;-inkscape-font-specification:Helvetica;writing-mode:lr-tb;fill:#000000;fill-opacity:1;fill-rule:nonzero;stroke:none"
           id="text96"><tspan
             x="0"
             y="0"
             id="tspan98">2</tspan></text>
</g><path
         d="m 222.3772,40.13614 c 5.5351,-5.53499 5.5351,-14.50899 0,-20.04398 -5.5349,-5.53502 -14.5089,-5.53502 -20.0439,0 -5.5351,5.53499 -5.5351,14.50899 0,20.04398 5.535,5.53503 14.509,5.53503 20.0439,0"
         style="fill:#ffffff;fill-opacity:1;fill-rule:nonzero;stroke:none"
         id="path100"
         inkscape:connector-curvature="0" /><g
         id="g102"
         transform="matrix(1,0,0,-1,-10.5,143.5)"><path
           d="m 232.8772,103.3639 c 5.5351,5.5349 5.5351,14.5089 0,20.0439 -5.5349,5.5351 -14.5089,5.5351 -20.0439,0 -5.5351,-5.535 -5.5351,-14.509 0,-20.0439 5.535,-5.53507 14.509,-5.53507 20.0439,0"
           style="fill:none;stroke:#000000;stroke-width:1;stroke-linecap:round;stroke-linejoin:round;stroke-miterlimit:10;stroke-dasharray:none;stroke-opacity:1"
           id="path104"
           inkscape:connector-curvature="0" /></g><g
         id="g106"
         transform="matrix(1,0,0,-1,211.8553,30.61415)"><text
           transform="translate(-5.005371,7)"
           style="font-variant:normal;font-weight:normal;font-size:18px;font-family:Helvetica;-inkscape-font-specification:Helvetica;writing-mode:lr-tb;fill:#000000;fill-opacity:1;fill-rule:nonzero;stroke:none"
           id="text108"><tspan
             x="0"
             y="0"
             id="tspan110">1</tspan></text>
</g><path
         d="m 412.9862,111.0023 c 5.535,-5.535 5.535,-14.50895 0,-20.04394 -5.535,-5.53502 -14.509,-5.53502 -20.044,0 -5.535,5.53499 -5.535,14.50894 0,20.04394 5.535,5.5351 14.509,5.5351 20.044,0"
         style="fill:#ffffff;fill-opacity:1;fill-rule:nonzero;stroke:none"
         id="path112"
         inkscape:connector-curvature="0" /><g
         id="g114"
         transform="matrix(1,0,0,-1,-10.5,143.5)"><path
           d="m 423.4862,32.49766 c 5.535,5.53499 5.535,14.50899 0,20.04398 -5.535,5.53502 -14.509,5.53502 -20.044,0 -5.535,-5.53499 -5.535,-14.50899 0,-20.04398 5.535,-5.53503 14.509,-5.53503 20.044,0"
           style="fill:none;stroke:#000000;stroke-width:1;stroke-linecap:round;stroke-linejoin:round;stroke-miterlimit:10;stroke-dasharray:none;stroke-opacity:1"
           id="path116"
           inkscape:connector-curvature="0" /></g><g
         id="g118"
         transform="matrix(1,0,0,-1,402.4642,101.4803)"><text
           transform="translate(-5.005371,7)"
           style="font-variant:normal;font-weight:normal;font-size:18px;font-family:Helvetica;-inkscape-font-specification:Helvetica;writing-mode:lr-tb;fill:#000000;fill-opacity:1;fill-rule:nonzero;stroke:none"
           id="text120"><tspan
             x="0"
             y="0"
             id="tspan122">0</tspan></text>
</g><path
         d="m 455.5063,40.13624 c 5.535,-5.535 5.535,-14.50898 0,-20.04398 -5.535,-5.53502 -14.509,-5.53502 -20.0441,0 -5.535,5.535 -5.535,14.50898 0,20.04398 5.5351,5.53502 14.5091,5.53502 20.0441,0"
         style="fill:#ffffff;fill-opacity:1;fill-rule:nonzero;stroke:none"
         id="path124"
         inkscape:connector-curvature="0" /><g
         id="g126"
         transform="matrix(1,0,0,-1,-10.5,143.5)"><path
           d="m 466.0063,103.3638 c 5.535,5.535 5.535,14.5089 0,20.0439 -5.535,5.5351 -14.509,5.5351 -20.0441,0 -5.535,-5.535 -5.535,-14.5089 0,-20.0439 5.5351,-5.53506 14.5091,-5.53506 20.0441,0"
           style="fill:none;stroke:#000000;stroke-width:1;stroke-linecap:round;stroke-linejoin:round;stroke-miterlimit:10;stroke-dasharray:none;stroke-opacity:1"
           id="path128"
           inkscape:connector-curvature="0" /></g><g
         id="g130"
         transform="matrix(1,0,0,-1,444.9843,30.61425)"><text
           transform="translate(-5.005371,7)"
           style="font-variant:normal;font-weight:normal;font-size:18px;font-family:Helvetica;-inkscape-font-specification:Helvetica;writing-mode:lr-tb;fill:#000000;fill-opacity:1;fill-rule:nonzero;stroke:none"
           id="text132"><tspan
             x="0"
             y="0"
             id="tspan134">2</tspan></text>
</g><path
         d="m 370.4673,40.13614 c 5.535,-5.53499 5.535,-14.50899 0,-20.04398 -5.535,-5.53502 -14.509,-5.53502 -20.0441,0 -5.535,5.53499 -5.535,14.50899 0,20.04398 5.5351,5.53503 14.5091,5.53503 20.0441,0"
         style="fill:#ffffff;fill-opacity:1;fill-rule:nonzero;stroke:none"
         id="path136"
         inkscape:connector-curvature="0" /><g
         id="g138"
         transform="matrix(1,0,0,-1,-10.5,143.5)"><path
           d="m 380.9673,103.3639 c 5.535,5.5349 5.535,14.5089 0,20.0439 -5.535,5.5351 -14.509,5.5351 -20.0441,0 -5.535,-5.535 -5.535,-14.509 0,-20.0439 5.5351,-5.53507 14.5091,-5.53507 20.0441,0"
           style="fill:none;stroke:#000000;stroke-width:1;stroke-linecap:round;stroke-linejoin:round;stroke-miterlimit:10;stroke-dasharray:none;stroke-opacity:1"
           id="path140"
           inkscape:connector-curvature="0" /></g><g
         id="g142"
         transform="matrix(1,0,0,-1,359.9453,30.61415)"><text
           transform="translate(-5.005371,7)"
           style="font-variant:normal;font-weight:normal;font-size:18px;font-family:Helvetica;-inkscape-font-specification:Helvetica;writing-mode:lr-tb;fill:#000000;fill-opacity:1;fill-rule:nonzero;stroke:none"
           id="text144"><tspan
             x="0"
             y="0"
             id="tspan146">1</tspan></text>
</g><g
         id="g148"
         transform="matrix(1,0,0,-1,-10.5,143.5)"><path
           d="M 66.79929,92.31159 89.12341,55.10472"
           style="fill:none;stroke:#000000;stroke-width:1;stroke-linecap:round;stroke-linejoin:round;stroke-miterlimit:10;stroke-dasharray:none;stroke-opacity:1"
           id="path150"
           inkscape:connector-curvature="0" /></g><path
         d="m 52.18333,44.32846 6.68844,5.31645 -5.14496,3.08698 -1.54348,-8.40343 z"
         style="fill:#000000;fill-opacity:1;fill-rule:nonzero;stroke:none"
         id="path152"
         inkscape:connector-curvature="0" /><g
         id="g154"
         transform="matrix(1,0,0,-1,-10.5,143.5)"><path
           d="m 62.68333,99.17154 6.68844,-5.31645 -5.14496,-3.08698 -1.54348,8.40343 z"
           style="fill:none;stroke:#000000;stroke-width:1;stroke-linecap:butt;stroke-linejoin:miter;stroke-miterlimit:10;stroke-dasharray:none;stroke-opacity:1"
           id="path156"
           inkscape:connector-curvature="0" /></g><path
         d="m 68.5649,41.4641 42,0 0,11 -42,0 0,-11 z"
         style="fill:#ffffff;fill-opacity:1;fill-rule:nonzero;stroke:none"
         id="path158"
         inkscape:connector-curvature="0" /><g
         id="g160"
         transform="matrix(1,0,0,-1,89.0649,47.4641)"><text
           transform="translate(-15.75,3.5)"
           style="font-variant:normal;font-weight:normal;font-size:9px;font-family:Helvetica;-inkscape-font-specification:Helvetica;writing-mode:lr-tb;fill:#000000;fill-opacity:1;fill-rule:nonzero;stroke:none"
           id="text162"><tspan
             x="0"
             y="0"
             sodipodi:role="line"
             id="tspan164">REQ (8)</tspan></text>
</g><g
         id="g166"
         transform="matrix(1,0,0,-1,-10.5,143.5)"><path
           d="M 121.4067,96.48441 C 117.4791,93.183 113.641,89.76842 110.848,85.0394 106.2646,77.27895 104.4928,65.97407 101.3156,56.44283"
           style="fill:none;stroke:#000000;stroke-width:1;stroke-linecap:round;stroke-linejoin:round;stroke-miterlimit:10;stroke-dasharray:none;stroke-opacity:1"
           id="path168"
           inkscape:connector-curvature="0" /></g><path
         d="m 116.8927,41.74535 -4.022,7.53815 -3.9649,-4.50331 7.9869,-3.03484 z"
         style="fill:#000000;fill-opacity:1;fill-rule:nonzero;stroke:none"
         id="path170"
         inkscape:connector-curvature="0" /><g
         id="g172"
         transform="matrix(1,0,0,-1,-10.5,143.5)"><path
           d="m 127.3927,101.7546 -4.022,-7.5381 -3.9649,4.50331 7.9869,3.03479 z"
           style="fill:none;stroke:#000000;stroke-width:1;stroke-linecap:butt;stroke-linejoin:miter;stroke-miterlimit:10;stroke-dasharray:none;stroke-opacity:1"
           id="path174"
           inkscape:connector-curvature="0" /></g><path
         d="m 64.2174,17.637 47,0 0,11 -47,0 0,-11 z"
         style="fill:#ffffff;fill-opacity:1;fill-rule:nonzero;stroke:none"
         id="path176"
         inkscape:connector-curvature="0" /><g
         id="g178"
         transform="matrix(1,0,0,-1,87.2174,23.637)"><text
           transform="translate(-18.25269,3.5)"
           style="font-variant:normal;font-weight:normal;font-size:9px;font-family:Helvetica;-inkscape-font-specification:Helvetica;writing-mode:lr-tb;fill:#000000;fill-opacity:1;fill-rule:nonzero;stroke:none"
           id="text180"><tspan
             x="0"
             y="0"
             sodipodi:role="line"
             id="tspan182">REQ (12)</tspan></text>
</g><g
         id="g184"
         transform="matrix(1,0,0,-1,-10.5,143.5)"><path
           d="m 78.728,113.3858 45.793,0"
           style="fill:none;stroke:#000000;stroke-width:1;stroke-linecap:round;stroke-linejoin:round;stroke-miterlimit:10;stroke-dasharray:none;stroke-opacity:1"
           id="path186"
           inkscape:connector-curvature="0" /></g><path
         d="m 60.228,30.11417 8.00001,-2.99999 -1e-5,6 -8,-3.00001 z"
         style="fill:#000000;fill-opacity:1;fill-rule:nonzero;stroke:none"
         id="path188"
         inkscape:connector-curvature="0" /><g
         id="g190"
         transform="matrix(1,0,0,-1,-10.5,143.5)"><path
           d="m 70.728,113.3858 8.00001,3 -1e-5,-6 -8,3 z"
           style="fill:none;stroke:#000000;stroke-width:1;stroke-linecap:butt;stroke-linejoin:miter;stroke-miterlimit:10;stroke-dasharray:none;stroke-opacity:1"
           id="path192"
           inkscape:connector-curvature="0" /></g><path
         d="m 118.588,58.4773 47,0 0,11 -47,0 0,-11 z"
         style="fill:#ffffff;fill-opacity:1;fill-rule:nonzero;stroke:none"
         id="path194"
         inkscape:connector-curvature="0" /><g
         id="g196"
         transform="matrix(1,0,0,-1,141.588,64.4773)"><text
           transform="translate(-18.25269,3.5)"
           style="font-variant:normal;font-weight:normal;font-size:9px;font-family:Helvetica;-inkscape-font-specification:Helvetica;writing-mode:lr-tb;fill:#000000;fill-opacity:1;fill-rule:nonzero;stroke:none"
           id="text198"><tspan
             x="0"
             sodipodi:role="line"
             id="tspan200"
             y="0">REQ (12)</tspan></text>
</g><g
         id="g202"
         transform="matrix(1,0,0,-1,-10.5,143.5)"><path
           d="m 114.4621,59.42102 c 3.9278,3.30145 7.7659,6.71605 10.5589,11.44508 4.5834,7.76045 6.3551,19.06524 9.5322,28.59644"
           style="fill:none;stroke:#000000;stroke-width:1;stroke-linecap:round;stroke-linejoin:round;stroke-miterlimit:10;stroke-dasharray:none;stroke-opacity:1"
           id="path204"
           inkscape:connector-curvature="0" /></g><path
         d="m 97.97606,89.34929 4.02204,-7.53815 3.9648,4.50333 -7.98684,3.03482 z"
         style="fill:#000000;fill-opacity:1;fill-rule:nonzero;stroke:none"
         id="path206"
         inkscape:connector-curvature="0" /><g
         id="g208"
         transform="matrix(1,0,0,-1,-10.5,143.5)"><path
           d="m 108.4761,54.15071 4.022,7.53815 3.9648,-4.50333 -7.9868,-3.03482 z"
           style="fill:none;stroke:#000000;stroke-width:1;stroke-linecap:butt;stroke-linejoin:miter;stroke-miterlimit:10;stroke-dasharray:none;stroke-opacity:1"
           id="path210"
           inkscape:connector-curvature="0" /></g><g
         id="g212"
         transform="matrix(1,0,0,-1,-10.5,143.5)"><path
           d="m 162.1676,104.8676 c 4.2955,-2.0319 8.3143,-3.6672 10.1724,-2.2076 3.1967,2.5112 3.1932,18.7467 0,21.276 -3.1932,2.5293 -12.7746,-4.0661 -19.1609,-6.0989"
           style="fill:none;stroke:#000000;stroke-width:1;stroke-linecap:round;stroke-linejoin:round;stroke-miterlimit:10;stroke-dasharray:none;stroke-opacity:1"
           id="path214"
           inkscape:connector-curvature="0" /></g><path
         d="m 144.3942,35.40361 8.5291,0.50394 -2.4344,5.48394 -6.0947,-5.98788 z"
         style="fill:#000000;fill-opacity:1;fill-rule:nonzero;stroke:none"
         id="path216"
         inkscape:connector-curvature="0" /><g
         id="g218"
         transform="matrix(1,0,0,-1,-10.5,143.5)"><path
           d="m 154.8942,108.0964 8.5291,-0.504 -2.4344,-5.4839 -6.0947,5.9879 z"
           style="fill:none;stroke:#000000;stroke-width:1;stroke-linecap:butt;stroke-linejoin:miter;stroke-miterlimit:10;stroke-dasharray:none;stroke-opacity:1"
           id="path220"
           inkscape:connector-curvature="0" /></g><path
         d="m 2.123901,110.1722 42,0 0,11 -42,0 0,-11 z"
         style="fill:#ffffff;fill-opacity:1;fill-rule:nonzero;stroke:none"
         id="path222"
         inkscape:connector-curvature="0" /><g
         id="g224"
         transform="matrix(1,0,0,-1,22.6239,116.1722)"><text
           transform="translate(-15.75,3.5)"
           style="font-variant:normal;font-weight:normal;font-size:9px;font-family:Helvetica;-inkscape-font-specification:Helvetica;writing-mode:lr-tb;fill:#000000;fill-opacity:1;fill-rule:nonzero;stroke:none"
           id="text226"><tspan
             x="0"
             sodipodi:role="line"
             id="tspan228"
             y="0">REQ (8)</tspan></text>
</g><g
         id="g230"
         transform="matrix(1,0,0,-1,-10.5,143.5)"><path
           d="M 72.49989,37.89217 C 64.91138,36.92709 57.17199,36.00362 55.0971,33.5106 c -3.0318,-3.64276 4.05388,-15.96994 9.0426,-15.9574 4.98872,0.01253 13.92916,10.68893 20.8927,16.0326"
           style="fill:none;stroke:#000000;stroke-width:1;stroke-linecap:round;stroke-linejoin:round;stroke-miterlimit:10;stroke-dasharray:none;stroke-opacity:1"
           id="path232"
           inkscape:connector-curvature="0" /></g><path
         d="m 69.95461,104.3783 -7.44784,4.1868 -0.91654,-5.9296 8.36438,1.7428 z"
         style="fill:#000000;fill-opacity:1;fill-rule:nonzero;stroke:none"
         id="path234"
         inkscape:connector-curvature="0" /><g
         id="g236"
         transform="matrix(1,0,0,-1,-10.5,143.5)"><path
           d="m 80.45461,39.12173 -7.44784,-4.18685 -0.91654,5.92959 8.36438,-1.74274 z"
           style="fill:none;stroke:#000000;stroke-width:1;stroke-linecap:butt;stroke-linejoin:miter;stroke-miterlimit:10;stroke-dasharray:none;stroke-opacity:1"
           id="path238"
           inkscape:connector-curvature="0" /></g><path
         d="m 240.801,16.707 24,0 0,11 -24,0 0,-11 z"
         style="fill:#ffffff;fill-opacity:1;fill-rule:nonzero;stroke:none"
         id="path240"
         inkscape:connector-curvature="0" /><g
         id="g242"
         transform="matrix(1,0,0,-1,252.301,22.707)"><text
           transform="translate(-6.501709,3.5)"
           style="font-variant:normal;font-weight:normal;font-size:9px;font-family:Helvetica;-inkscape-font-specification:Helvetica;writing-mode:lr-tb;fill:#000000;fill-opacity:1;fill-rule:nonzero;stroke:none"
           id="text244"><tspan
             x="0 7.0019999"
             y="0"
             sodipodi:role="line"
             id="tspan246">OK</tspan></text>
</g><g
         id="g248"
         transform="matrix(1,0,0,-1,-10.5,143.5)"><path
           d="m 283.321,113.3858 -45.7925,0"
           style="fill:none;stroke:#000000;stroke-width:1;stroke-linecap:round;stroke-linejoin:round;stroke-miterlimit:10;stroke-dasharray:none;stroke-opacity:1"
           id="path250"
           inkscape:connector-curvature="0" /></g><path
         d="m 280.821,30.11423 -8,2.99999 0,-6 8,3.00001 z"
         style="fill:#000000;fill-opacity:1;fill-rule:nonzero;stroke:none"
         id="path252"
         inkscape:connector-curvature="0" /><g
         id="g254"
         transform="matrix(1,0,0,-1,-10.5,143.5)"><path
           d="m 291.321,113.3858 -8,-3 0,6 8,-3 z"
           style="fill:none;stroke:#000000;stroke-width:1;stroke-linecap:butt;stroke-linejoin:miter;stroke-miterlimit:10;stroke-dasharray:none;stroke-opacity:1"
           id="path256"
           inkscape:connector-curvature="0" /></g><path
         d="m 227.375,54.2777 24,0 0,11 -24,0 0,-11 z"
         style="fill:#ffffff;fill-opacity:1;fill-rule:nonzero;stroke:none"
         id="path258"
         inkscape:connector-curvature="0" /><g
         id="g260"
         transform="matrix(1,0,0,-1,238.875,60.2777)"><text
           transform="translate(-6.501709,3.5)"
           style="font-variant:normal;font-weight:normal;font-size:9px;font-family:Helvetica;-inkscape-font-specification:Helvetica;writing-mode:lr-tb;fill:#000000;fill-opacity:1;fill-rule:nonzero;stroke:none"
           id="text262"><tspan
             x="0 7.0019999"
             y="0"
             sodipodi:role="line"
             id="tspan264">OK</tspan></text>
</g><g
         id="g266"
         transform="matrix(1,0,0,-1,-10.5,143.5)"><path
           d="M 252.7306,63.59386 230.4063,100.8008"
           style="fill:none;stroke:#000000;stroke-width:1;stroke-linecap:round;stroke-linejoin:round;stroke-miterlimit:10;stroke-dasharray:none;stroke-opacity:1"
           id="path268"
           inkscape:connector-curvature="0" /></g><path
         d="m 246.3466,86.76607 -6.6884,-5.31644 5.1449,-3.08698 1.5435,8.40342 z"
         style="fill:#000000;fill-opacity:1;fill-rule:nonzero;stroke:none"
         id="path270"
         inkscape:connector-curvature="0" /><g
         id="g272"
         transform="matrix(1,0,0,-1,-10.5,143.5)"><path
           d="m 256.8466,56.73393 -6.6884,5.31644 5.1449,3.08698 1.5435,-8.40342 z"
           style="fill:none;stroke:#000000;stroke-width:1;stroke-linecap:butt;stroke-linejoin:miter;stroke-miterlimit:10;stroke-dasharray:none;stroke-opacity:1"
           id="path274"
           inkscape:connector-curvature="0" /></g><path
         d="m 258.375,54.2778 24,0 0,11 -24,0 0,-11 z"
         style="fill:#ffffff;fill-opacity:1;fill-rule:nonzero;stroke:none"
         id="path276"
         inkscape:connector-curvature="0" /><g
         id="g278"
         transform="matrix(1,0,0,-1,269.875,60.2778)"><text
           transform="translate(-6.501709,3.5)"
           style="font-variant:normal;font-weight:normal;font-size:9px;font-family:Helvetica;-inkscape-font-specification:Helvetica;writing-mode:lr-tb;fill:#000000;fill-opacity:1;fill-rule:nonzero;stroke:none"
           id="text280"><tspan
             x="0 7.0019999"
             y="0"
             sodipodi:role="line"
             id="tspan282">OK</tspan></text>
</g><g
         id="g284"
         transform="matrix(1,0,0,-1,-10.5,143.5)"><path
           d="m 278.0196,63.59398 22.3237,37.20662"
           style="fill:none;stroke:#000000;stroke-width:1;stroke-linecap:round;stroke-linejoin:round;stroke-miterlimit:10;stroke-dasharray:none;stroke-opacity:1"
           id="path286"
           inkscape:connector-curvature="0" /></g><path
         d="m 263.4037,86.76599 1.5434,-8.40344 5.145,3.08694 -6.6884,5.3165 z"
         style="fill:#000000;fill-opacity:1;fill-rule:nonzero;stroke:none"
         id="path288"
         inkscape:connector-curvature="0" /><g
         id="g290"
         transform="matrix(1,0,0,-1,-10.5,143.5)"><path
           d="m 273.9037,56.73401 1.5434,8.40344 5.145,-3.08694 -6.6884,-5.3165 z"
           style="fill:none;stroke:#000000;stroke-width:1;stroke-linecap:butt;stroke-linejoin:miter;stroke-miterlimit:10;stroke-dasharray:none;stroke-opacity:1"
           id="path292"
           inkscape:connector-curvature="0" /></g><path
         d="m 404.423,57.6806 24,0 0,11 -24,0 0,-11 z"
         style="fill:#ffffff;fill-opacity:1;fill-rule:nonzero;stroke:none"
         id="path294"
         inkscape:connector-curvature="0" /><g
         id="g296"
         transform="matrix(1,0,0,-1,415.923,63.6806)"><text
           transform="translate(-6.501709,3.5)"
           style="font-variant:normal;font-weight:normal;font-size:9px;font-family:Helvetica;-inkscape-font-specification:Helvetica;writing-mode:lr-tb;fill:#000000;fill-opacity:1;fill-rule:nonzero;stroke:none"
           id="text298"><tspan
             x="0 7.0019999"
             y="0"
             sodipodi:role="line"
             id="tspan300">OK</tspan></text>
</g><g
         id="g302"
         transform="matrix(1,0,0,-1,-10.5,143.5)"><path
           d="M 443.3396,92.31152 421.0154,55.10471"
           style="fill:none;stroke:#000000;stroke-width:1;stroke-linecap:round;stroke-linejoin:round;stroke-miterlimit:10;stroke-dasharray:none;stroke-opacity:1"
           id="path304"
           inkscape:connector-curvature="0" /></g><path
         d="m 436.9556,44.32854 -1.5435,8.40343 -5.1449,-3.08699 6.6884,-5.31644 z"
         style="fill:#000000;fill-opacity:1;fill-rule:nonzero;stroke:none"
         id="path306"
         inkscape:connector-curvature="0" /><g
         id="g308"
         transform="matrix(1,0,0,-1,-10.5,143.5)"><path
           d="m 447.4556,99.17146 -1.5435,-8.40343 -5.1449,3.08699 6.6884,5.31644 z"
           style="fill:none;stroke:#000000;stroke-width:1;stroke-linecap:butt;stroke-linejoin:miter;stroke-miterlimit:10;stroke-dasharray:none;stroke-opacity:1"
           id="path310"
           inkscape:connector-curvature="0" /></g></g></g></svg>