<?xml version="1.0" encoding="UTF-8" standalone="no"?>
<!-- Created with Inkscape (http://www.inkscape.org/) -->

<svg
   xmlns:dc="http://purl.org/dc/elements/1.1/"
   xmlns:cc="http://creativecommons.org/ns#"
   xmlns:rdf="http://www.w3.org/1999/02/22-rdf-syntax-ns#"
   xmlns:svg="http://www.w3.org/2000/svg"
   xmlns="http://www.w3.org/2000/svg"
   xmlns:sodipodi="http://sodipodi.sourceforge.net/DTD/sodipodi-0.dtd"
   xmlns:inkscape="http://www.inkscape.org/namespaces/inkscape"
   id="svg2"
   version="1.1"
   inkscape:version="0.91 r13725"
   xml:space="preserve"
   width="647.5"
   height="165"
   viewBox="0 0 647.5 165"
   sodipodi:docname="sync_central.svg"><metadata
     id="metadata8"><rdf:RDF><cc:Work
         rdf:about=""><dc:format>image/svg+xml</dc:format><dc:type
           rdf:resource="http://purl.org/dc/dcmitype/StillImage" /><dc:title></dc:title></cc:Work></rdf:RDF></metadata><defs
     id="defs6" /><sodipodi:namedview
     pagecolor="#ffffff"
     bordercolor="#666666"
     borderopacity="1"
     objecttolerance="10"
     gridtolerance="10"
     guidetolerance="10"
     inkscape:pageopacity="0"
     inkscape:pageshadow="2"
     inkscape:window-width="1152"
     inkscape:window-height="649"
     id="namedview4"
     showgrid="false"
     inkscape:zoom="1.5444015"
     inkscape:cx="323.75"
     inkscape:cy="82.5"
     inkscape:window-x="0"
     inkscape:window-y="28"
     inkscape:window-maximized="0"
     inkscape:current-layer="g10" /><g
     id="g10"
     inkscape:groupmode="layer"
     inkscape:label="sync_central"
     transform="matrix(1.25,0,0,-1.25,0,165)"><g
       id="g12" /><g
       id="g14"><path
         d="m 301.9066,52.94946 28,0 0,11 -28,0 0,-11 z"
         style="fill:#ffffff;fill-opacity:1;fill-rule:nonzero;stroke:none"
         id="path16"
         inkscape:connector-curvature="0" /><g
         id="g18"
         transform="matrix(1,0,0,-1,315.4066,58.94946)"><text
           transform="translate(-9,3.5)"
           style="font-variant:normal;font-weight:normal;font-size:9px;font-family:Helvetica;-inkscape-font-specification:Helvetica;writing-mode:lr-tb;fill:#000000;fill-opacity:1;fill-rule:nonzero;stroke:none"
           id="text20"><tspan
             x="0"
             y="0"
             sodipodi:role="line"
             id="tspan22">REQ</tspan></text>
</g><path
         d="m 67.13925,61.46088 28,0 0,11 -28,0 0,-11 z"
         style="fill:#ffffff;fill-opacity:1;fill-rule:nonzero;stroke:none"
         id="path24"
         inkscape:connector-curvature="0" /><g
         id="g26"
         transform="matrix(1,0,0,-1,80.63925,67.46088)"><text
           transform="translate(-9,3.5)"
           style="font-variant:normal;font-weight:normal;font-size:9px;font-family:Helvetica;-inkscape-font-specification:Helvetica;writing-mode:lr-tb;fill:#000000;fill-opacity:1;fill-rule:nonzero;stroke:none"
           id="text28"><tspan
             x="0"
             y="0"
             sodipodi:role="line"
             id="tspan30">REQ</tspan></text>
</g><path
         d="m 418.555,61.1976 28,0 0,11 -28,0 0,-11 z"
         style="fill:#ffffff;fill-opacity:1;fill-rule:nonzero;stroke:none"
         id="path32"
         inkscape:connector-curvature="0" /><g
         id="g34"
         transform="matrix(1,0,0,-1,432.055,67.1976)"><text
           transform="translate(-8.753906,3.5)"
           style="font-variant:normal;font-weight:normal;font-size:9px;font-family:Helvetica;-inkscape-font-specification:Helvetica;writing-mode:lr-tb;fill:#000000;fill-opacity:1;fill-rule:nonzero;stroke:none"
           id="text36"><tspan
             x="0 6.4980001 12.501"
             y="0"
             sodipodi:role="line"
             id="tspan38">REL</tspan></text>
</g><path
         d="m 471.493,51.3229 24,0 0,11 -24,0 0,-11 z"
         style="fill:#ffffff;fill-opacity:1;fill-rule:nonzero;stroke:none"
         id="path40"
         inkscape:connector-curvature="0" /><g
         id="g42"
         transform="matrix(1,0,0,-1,482.993,57.3229)"><text
           transform="translate(-6.501709,3.5)"
           style="font-variant:normal;font-weight:normal;font-size:9px;font-family:Helvetica;-inkscape-font-specification:Helvetica;writing-mode:lr-tb;fill:#000000;fill-opacity:1;fill-rule:nonzero;stroke:none"
           id="text44"><tspan
             x="0 7.0019999"
             y="0"
             sodipodi:role="line"
             id="tspan46">OK</tspan></text>
</g><g
         id="g48"
         transform="matrix(1,0,0,-1,-7.5,143.5)"><path
           d="m 105.624,90.05169 c -1.8172,-4.61071 -3.4652,-9.18906 -3.496,-13.45599 -0.0516,-7.14878 4.4362,-13.4277 6.6539,-20.14055"
           style="fill:none;stroke:#000000;stroke-width:1;stroke-linecap:round;stroke-linejoin:round;stroke-miterlimit:10;stroke-dasharray:none;stroke-opacity:1"
           id="path50"
           inkscape:connector-curvature="0" /></g><path
         d="m 100.9278,45.92817 0.0162,8.54399 -5.62196,-2.09605 5.60576,-6.44794 z"
         style="fill:#000000;fill-opacity:1;fill-rule:nonzero;stroke:none"
         id="path52"
         inkscape:connector-curvature="0" /><g
         id="g54"
         transform="matrix(1,0,0,-1,-7.5,143.5)"><path
           d="m 108.4278,97.57183 0.0162,-8.54399 -5.622,2.09605 5.6058,6.44794 z"
           style="fill:none;stroke:#000000;stroke-width:1;stroke-linecap:butt;stroke-linejoin:miter;stroke-miterlimit:10;stroke-dasharray:none;stroke-opacity:1"
           id="path56"
           inkscape:connector-curvature="0" /></g><g
         id="g58"
         transform="matrix(1,0,0,-1,37.88173,44.7873)"><text
           transform="translate(-30.87573,3.5)"
           style="font-variant:normal;font-weight:normal;font-size:11px;font-family:Helvetica;-inkscape-font-specification:Helvetica;writing-mode:lr-tb;fill:#000000;fill-opacity:1;fill-rule:nonzero;stroke:none"
           id="text60"><tspan
             x="0 8.5579996 14.674 20.790001 26.906 33.021999 36.080002 39.743 42.185001 48.300999 54.417 58.080002"
             y="0"
             sodipodi:role="line"
             id="tspan62">Queue (leer)</tspan></text>
</g><g
         id="g64"
         transform="matrix(1,0,0,-1,-7.5,143.5)"><path
           d="m 198.425,14.1732 0,127.5588"
           style="fill:none;stroke:#000000;stroke-width:1;stroke-linecap:round;stroke-linejoin:round;stroke-miterlimit:10;stroke-dasharray:none;stroke-opacity:1"
           id="path66"
           inkscape:connector-curvature="0" /></g><path
         d="m 115.9078,111.0023 c 5.5351,-5.535 5.5351,-14.50895 0,-20.04394 -5.535,-5.53502 -14.509,-5.53502 -20.04394,0 -5.53503,5.53499 -5.53503,14.50894 0,20.04394 5.53494,5.5351 14.50894,5.5351 20.04394,0"
         style="fill:#ffffff;fill-opacity:1;fill-rule:nonzero;stroke:none"
         id="path68"
         inkscape:connector-curvature="0" /><g
         id="g70"
         transform="matrix(1,0,0,-1,-7.5,143.5)"><path
           d="m 123.4078,32.49766 c 5.5351,5.53499 5.5351,14.50899 0,20.04398 -5.535,5.53502 -14.509,5.53502 -20.0439,0 -5.53507,-5.53499 -5.53507,-14.50899 0,-20.04398 5.5349,-5.53503 14.5089,-5.53503 20.0439,0"
           style="fill:none;stroke:#000000;stroke-width:1;stroke-linecap:round;stroke-linejoin:round;stroke-miterlimit:10;stroke-dasharray:none;stroke-opacity:1"
           id="path72"
           inkscape:connector-curvature="0" /></g><g
         id="g74"
         transform="matrix(1,0,0,-1,105.3858,101.4803)"><text
           transform="translate(-5.005371,7)"
           style="font-variant:normal;font-weight:normal;font-size:18px;font-family:Helvetica;-inkscape-font-specification:Helvetica;writing-mode:lr-tb;fill:#000000;fill-opacity:1;fill-rule:nonzero;stroke:none"
           id="text76"><tspan
             x="0"
             y="0"
             id="tspan78">1</tspan></text>
</g><path
         d="m 59.21494,111.0023 c 5.53502,-5.535 5.53502,-14.50895 0,-20.04394 -5.535,-5.53502 -14.50899,-5.53502 -20.04398,0 -5.53503,5.53499 -5.53503,14.50894 0,20.04394 5.53499,5.5351 14.50898,5.5351 20.04398,0"
         style="fill:#ffffff;fill-opacity:1;fill-rule:nonzero;stroke:none"
         id="path80"
         inkscape:connector-curvature="0" /><g
         id="g82"
         transform="matrix(1,0,0,-1,-7.5,143.5)"><path
           d="m 66.71494,32.49766 c 5.53502,5.53499 5.53502,14.50899 0,20.04398 -5.535,5.53502 -14.50899,5.53502 -20.04398,0 -5.53503,-5.53499 -5.53503,-14.50899 0,-20.04398 5.53499,-5.53503 14.50898,-5.53503 20.04398,0"
           style="fill:none;stroke:#000000;stroke-width:1;stroke-linecap:round;stroke-linejoin:round;stroke-miterlimit:10;stroke-dasharray:none;stroke-opacity:1"
           id="path84"
           inkscape:connector-curvature="0" /></g><g
         id="g86"
         transform="matrix(1,0,0,-1,48.69295,101.4803)"><text
           transform="translate(-5.005367,7)"
           style="font-variant:normal;font-weight:normal;font-size:18px;font-family:Helvetica;-inkscape-font-specification:Helvetica;writing-mode:lr-tb;fill:#000000;fill-opacity:1;fill-rule:nonzero;stroke:none"
           id="text88"><tspan
             x="0"
             y="0"
             id="tspan90">0</tspan></text>
</g><path
         d="m 115.9078,40.13614 c 5.5351,-5.53499 5.5351,-14.50899 0,-20.04398 -5.535,-5.53502 -14.509,-5.53502 -20.04394,0 -5.53503,5.53499 -5.53503,14.50899 0,20.04398 5.53494,5.53503 14.50894,5.53503 20.04394,0"
         style="fill:#ffffff;fill-opacity:1;fill-rule:nonzero;stroke:none"
         id="path92"
         inkscape:connector-curvature="0" /><g
         id="g94"
         transform="matrix(1,0,0,-1,-7.5,143.5)"><path
           d="m 123.4078,103.3639 c 5.5351,5.5349 5.5351,14.5089 0,20.0439 -5.535,5.5351 -14.509,5.5351 -20.0439,0 -5.53507,-5.535 -5.53507,-14.509 0,-20.0439 5.5349,-5.53507 14.5089,-5.53507 20.0439,0"
           style="fill:none;stroke:#000000;stroke-width:1;stroke-linecap:round;stroke-linejoin:round;stroke-miterlimit:10;stroke-dasharray:none;stroke-opacity:1"
           id="path96"
           inkscape:connector-curvature="0" /></g><g
         id="g98"
         transform="matrix(1,0,0,-1,105.3858,30.61415)"><text
           transform="translate(-5.005371,7)"
           style="font-variant:normal;font-weight:normal;font-size:18px;font-family:Helvetica;-inkscape-font-specification:Helvetica;writing-mode:lr-tb;fill:#000000;fill-opacity:1;fill-rule:nonzero;stroke:none"
           id="text100"><tspan
             x="0"
             y="0"
             id="tspan102">3</tspan></text>
</g><path
         d="m 172.6012,111.0023 c 5.5351,-5.535 5.5351,-14.50895 0,-20.04394 -5.5349,-5.53502 -14.5089,-5.53502 -20.0439,0 -5.5351,5.53499 -5.5351,14.50894 0,20.04394 5.535,5.5351 14.509,5.5351 20.0439,0"
         style="fill:#ffffff;fill-opacity:1;fill-rule:nonzero;stroke:none"
         id="path104"
         inkscape:connector-curvature="0" /><g
         id="g106"
         transform="matrix(1,0,0,-1,-7.5,143.5)"><path
           d="m 180.1012,32.49766 c 5.5351,5.53499 5.5351,14.50899 0,20.04398 -5.5349,5.53502 -14.5089,5.53502 -20.0439,0 -5.5351,-5.53499 -5.5351,-14.50899 0,-20.04398 5.535,-5.53503 14.509,-5.53503 20.0439,0"
           style="fill:none;stroke:#000000;stroke-width:1;stroke-linecap:round;stroke-linejoin:round;stroke-miterlimit:10;stroke-dasharray:none;stroke-opacity:1"
           id="path108"
           inkscape:connector-curvature="0" /></g><g
         id="g110"
         transform="matrix(1,0,0,-1,162.0793,101.4803)"><text
           transform="translate(-5.005371,7)"
           style="font-variant:normal;font-weight:normal;font-size:18px;font-family:Helvetica;-inkscape-font-specification:Helvetica;writing-mode:lr-tb;fill:#000000;fill-opacity:1;fill-rule:nonzero;stroke:none"
           id="text112"><tspan
             x="0"
             y="0"
             id="tspan114">2</tspan></text>
</g><g
         id="g116"
         transform="matrix(1,0,0,-1,-7.5,143.5)"><path
           d="m 119.3247,99.96397 c 3.1324,-7.07948 9.4339,-13.91964 9.3983,-21.24057 -0.026,-5.35344 -3.4407,-10.9663 -6.5269,-16.55358"
           style="fill:none;stroke:#000000;stroke-width:1;stroke-linecap:round;stroke-linejoin:round;stroke-miterlimit:10;stroke-dasharray:none;stroke-opacity:1"
           id="path118"
           inkscape:connector-curvature="0" /></g><path
         d="m 112.4645,85.76851 0.9134,-8.49503 1.3327,4.02791 0,0 4.0279,-1.33262 -6.274,5.79974 z"
         style="fill:#000000;fill-opacity:1;fill-rule:nonzero;stroke:none"
         id="path120"
         inkscape:connector-curvature="0" /><g
         id="g122"
         transform="matrix(1,0,0,-1,-7.5,143.5)"><path
           d="m 119.9645,57.73149 0.9134,8.49503 1.3327,-4.02791 0,0 4.0279,1.33262 -6.274,-5.79974 z"
           style="fill:none;stroke:#000000;stroke-width:1;stroke-linecap:butt;stroke-linejoin:miter;stroke-miterlimit:10;stroke-dasharray:none;stroke-opacity:1"
           id="path124"
           inkscape:connector-curvature="0" /></g><path
         d="m 121.7782,58.81552 24,0 0,11 -24,0 0,-11 z"
         style="fill:#ffffff;fill-opacity:1;fill-rule:nonzero;stroke:none"
         id="path126"
         inkscape:connector-curvature="0" /><g
         id="g128"
         transform="matrix(1,0,0,-1,133.2782,64.81552)"><text
           transform="translate(-6.501709,3.5)"
           style="font-variant:normal;font-weight:normal;font-size:9px;font-family:Helvetica;-inkscape-font-specification:Helvetica;writing-mode:lr-tb;fill:#000000;fill-opacity:1;fill-rule:nonzero;stroke:none"
           id="text130"><tspan
             x="0 7.0019999"
             y="0"
             sodipodi:role="line"
             id="tspan132">OK</tspan></text>
</g><g
         id="g134"
         transform="matrix(1,0,0,-1,-7.5,143.5)"><path
           d="M 298.8159,94.19653 330.9911,53.97842"
           style="fill:none;stroke:#000000;stroke-width:1;stroke-linecap:round;stroke-linejoin:round;stroke-miterlimit:10;stroke-dasharray:none;stroke-opacity:1"
           id="path136"
           inkscape:connector-curvature="0" /></g><path
         d="m 286.3183,43.05657 7.3402,4.3728 -4.6851,3.74821 -2.6551,-8.12101 z"
         style="fill:#000000;fill-opacity:1;fill-rule:nonzero;stroke:none"
         id="path138"
         inkscape:connector-curvature="0" /><g
         id="g140"
         transform="matrix(1,0,0,-1,-7.5,143.5)"><path
           d="m 293.8183,100.4434 7.3402,-4.37277 -4.6851,-3.74821 -2.6551,8.12098 z"
           style="fill:none;stroke:#000000;stroke-width:1;stroke-linecap:butt;stroke-linejoin:miter;stroke-miterlimit:10;stroke-dasharray:none;stroke-opacity:1"
           id="path142"
           inkscape:connector-curvature="0" /></g><g
         id="g144"
         transform="matrix(1,0,0,-1,-7.5,143.5)"><path
           d="m 368.504,14.1732 0,127.5588"
           style="fill:none;stroke:#000000;stroke-width:1;stroke-linecap:round;stroke-linejoin:round;stroke-miterlimit:10;stroke-dasharray:none;stroke-opacity:1"
           id="path146"
           inkscape:connector-curvature="0" /></g><path
         d="m 285.9862,111.0023 c 5.535,-5.535 5.535,-14.50895 0,-20.04394 -5.535,-5.53502 -14.509,-5.53502 -20.044,0 -5.535,5.53499 -5.535,14.50894 0,20.04394 5.535,5.5351 14.509,5.5351 20.044,0"
         style="fill:#ffffff;fill-opacity:1;fill-rule:nonzero;stroke:none"
         id="path148"
         inkscape:connector-curvature="0" /><g
         id="g150"
         transform="matrix(1,0,0,-1,-7.5,143.5)"><path
           d="m 293.4862,32.49766 c 5.535,5.53499 5.535,14.50899 0,20.04398 -5.535,5.53502 -14.509,5.53502 -20.044,0 -5.535,-5.53499 -5.535,-14.50899 0,-20.04398 5.535,-5.53503 14.509,-5.53503 20.044,0"
           style="fill:none;stroke:#000000;stroke-width:1;stroke-linecap:round;stroke-linejoin:round;stroke-miterlimit:10;stroke-dasharray:none;stroke-opacity:1"
           id="path152"
           inkscape:connector-curvature="0" /></g><g
         id="g154"
         transform="matrix(1,0,0,-1,275.4642,101.4803)"><text
           transform="translate(-5.005371,7)"
           style="font-variant:normal;font-weight:normal;font-size:18px;font-family:Helvetica;-inkscape-font-specification:Helvetica;writing-mode:lr-tb;fill:#000000;fill-opacity:1;fill-rule:nonzero;stroke:none"
           id="text156"><tspan
             x="0"
             y="0"
             id="tspan158">1</tspan></text>
</g><path
         d="m 229.2932,111.0023 c 5.5351,-5.535 5.5351,-14.50895 0,-20.04394 -5.5349,-5.53502 -14.5089,-5.53502 -20.0439,0 -5.5351,5.53499 -5.5351,14.50894 0,20.04394 5.535,5.5351 14.509,5.5351 20.0439,0"
         style="fill:#ffffff;fill-opacity:1;fill-rule:nonzero;stroke:none"
         id="path160"
         inkscape:connector-curvature="0" /><g
         id="g162"
         transform="matrix(1,0,0,-1,-7.5,143.5)"><path
           d="m 236.7932,32.49766 c 5.5351,5.53499 5.5351,14.50899 0,20.04398 -5.5349,5.53502 -14.5089,5.53502 -20.0439,0 -5.5351,-5.53499 -5.5351,-14.50899 0,-20.04398 5.535,-5.53503 14.509,-5.53503 20.0439,0"
           style="fill:none;stroke:#000000;stroke-width:1;stroke-linecap:round;stroke-linejoin:round;stroke-miterlimit:10;stroke-dasharray:none;stroke-opacity:1"
           id="path164"
           inkscape:connector-curvature="0" /></g><g
         id="g166"
         transform="matrix(1,0,0,-1,218.7713,101.4803)"><text
           transform="translate(-5.005356,7)"
           style="font-variant:normal;font-weight:normal;font-size:18px;font-family:Helvetica;-inkscape-font-specification:Helvetica;writing-mode:lr-tb;fill:#000000;fill-opacity:1;fill-rule:nonzero;stroke:none"
           id="text168"><tspan
             x="0"
             y="0"
             id="tspan170">0</tspan></text>
</g><path
         d="m 285.9862,40.13614 c 5.535,-5.53499 5.535,-14.50899 0,-20.04398 -5.535,-5.53502 -14.509,-5.53502 -20.044,0 -5.535,5.53499 -5.535,14.50899 0,20.04398 5.535,5.53503 14.509,5.53503 20.044,0"
         style="fill:#ffffff;fill-opacity:1;fill-rule:nonzero;stroke:none"
         id="path172"
         inkscape:connector-curvature="0" /><g
         id="g174"
         transform="matrix(1,0,0,-1,-7.5,143.5)"><path
           d="m 293.4862,103.3639 c 5.535,5.5349 5.535,14.5089 0,20.0439 -5.535,5.5351 -14.509,5.5351 -20.044,0 -5.535,-5.535 -5.535,-14.509 0,-20.0439 5.535,-5.53507 14.509,-5.53507 20.044,0"
           style="fill:none;stroke:#000000;stroke-width:1;stroke-linecap:round;stroke-linejoin:round;stroke-miterlimit:10;stroke-dasharray:none;stroke-opacity:1"
           id="path176"
           inkscape:connector-curvature="0" /></g><g
         id="g178"
         transform="matrix(1,0,0,-1,275.4642,30.61415)"><text
           transform="translate(-5.005371,7)"
           style="font-variant:normal;font-weight:normal;font-size:18px;font-family:Helvetica;-inkscape-font-specification:Helvetica;writing-mode:lr-tb;fill:#000000;fill-opacity:1;fill-rule:nonzero;stroke:none"
           id="text180"><tspan
             x="0"
             y="0"
             id="tspan182">3</tspan></text>
</g><path
         d="m 342.6802,111.0023 c 5.535,-5.535 5.535,-14.50895 0,-20.04394 -5.535,-5.53502 -14.509,-5.53502 -20.044,0 -5.535,5.53499 -5.535,14.50894 0,20.04394 5.535,5.5351 14.509,5.5351 20.044,0"
         style="fill:#ffffff;fill-opacity:1;fill-rule:nonzero;stroke:none"
         id="path184"
         inkscape:connector-curvature="0" /><g
         id="g186"
         transform="matrix(1,0,0,-1,-7.5,143.5)"><path
           d="m 350.1802,32.49766 c 5.535,5.53499 5.535,14.50899 0,20.04398 -5.535,5.53502 -14.509,5.53502 -20.044,0 -5.535,-5.53499 -5.535,-14.50899 0,-20.04398 5.535,-5.53503 14.509,-5.53503 20.044,0"
           style="fill:none;stroke:#000000;stroke-width:1;stroke-linecap:round;stroke-linejoin:round;stroke-miterlimit:10;stroke-dasharray:none;stroke-opacity:1"
           id="path188"
           inkscape:connector-curvature="0" /></g><g
         id="g190"
         transform="matrix(1,0,0,-1,332.1582,101.4803)"><text
           transform="translate(-5.005371,7)"
           style="font-variant:normal;font-weight:normal;font-size:18px;font-family:Helvetica;-inkscape-font-specification:Helvetica;writing-mode:lr-tb;fill:#000000;fill-opacity:1;fill-rule:nonzero;stroke:none"
           id="text192"><tspan
             x="0"
             y="0"
             id="tspan194">2</tspan></text>
</g><g
         id="g196"
         transform="matrix(1,0,0,-1,-7.5,143.5)"><path
           d="m 453.5432,88.81259 0,-31.61968"
           style="fill:none;stroke:#000000;stroke-width:1;stroke-linecap:round;stroke-linejoin:round;stroke-miterlimit:10;stroke-dasharray:none;stroke-opacity:1"
           id="path198"
           inkscape:connector-curvature="0" /></g><path
         d="m 446.0432,46.68741 3,8 -6,0 3,-8 z"
         style="fill:#000000;fill-opacity:1;fill-rule:nonzero;stroke:none"
         id="path200"
         inkscape:connector-curvature="0" /><g
         id="g202"
         transform="matrix(1,0,0,-1,-7.5,143.5)"><path
           d="m 453.5432,96.81259 3,-8 -6,0 3,8 z"
           style="fill:none;stroke:#000000;stroke-width:1;stroke-linecap:butt;stroke-linejoin:miter;stroke-miterlimit:10;stroke-dasharray:none;stroke-opacity:1"
           id="path204"
           inkscape:connector-curvature="0" /></g><path
         d="m 456.0652,111.0023 c 5.5351,-5.535 5.5351,-14.50895 0,-20.04394 -5.535,-5.53502 -14.509,-5.53502 -20.044,0 -5.535,5.53499 -5.535,14.50894 0,20.04394 5.535,5.5351 14.509,5.5351 20.044,0"
         style="fill:#ffffff;fill-opacity:1;fill-rule:nonzero;stroke:none"
         id="path206"
         inkscape:connector-curvature="0" /><g
         id="g208"
         transform="matrix(1,0,0,-1,-7.5,143.5)"><path
           d="m 463.5652,32.49766 c 5.5351,5.53499 5.5351,14.50899 0,20.04398 -5.535,5.53502 -14.509,5.53502 -20.044,0 -5.535,-5.53499 -5.535,-14.50899 0,-20.04398 5.535,-5.53503 14.509,-5.53503 20.044,0"
           style="fill:none;stroke:#000000;stroke-width:1;stroke-linecap:round;stroke-linejoin:round;stroke-miterlimit:10;stroke-dasharray:none;stroke-opacity:1"
           id="path210"
           inkscape:connector-curvature="0" /></g><g
         id="g212"
         transform="matrix(1,0,0,-1,445.5432,101.4803)"><text
           transform="translate(-5.005371,7)"
           style="font-variant:normal;font-weight:normal;font-size:18px;font-family:Helvetica;-inkscape-font-specification:Helvetica;writing-mode:lr-tb;fill:#000000;fill-opacity:1;fill-rule:nonzero;stroke:none"
           id="text214"><tspan
             x="0"
             y="0"
             id="tspan216">1</tspan></text>
</g><path
         d="m 399.3723,111.0023 c 5.535,-5.535 5.535,-14.50895 0,-20.04394 -5.5351,-5.53502 -14.509,-5.53502 -20.0441,0 -5.535,5.53499 -5.535,14.50894 0,20.04394 5.5351,5.5351 14.509,5.5351 20.0441,0"
         style="fill:#ffffff;fill-opacity:1;fill-rule:nonzero;stroke:none"
         id="path218"
         inkscape:connector-curvature="0" /><g
         id="g220"
         transform="matrix(1,0,0,-1,-7.5,143.5)"><path
           d="m 406.8723,32.49766 c 5.535,5.53499 5.535,14.50899 0,20.04398 -5.5351,5.53502 -14.509,5.53502 -20.0441,0 -5.535,-5.53499 -5.535,-14.50899 0,-20.04398 5.5351,-5.53503 14.509,-5.53503 20.0441,0"
           style="fill:none;stroke:#000000;stroke-width:1;stroke-linecap:round;stroke-linejoin:round;stroke-miterlimit:10;stroke-dasharray:none;stroke-opacity:1"
           id="path222"
           inkscape:connector-curvature="0" /></g><g
         id="g224"
         transform="matrix(1,0,0,-1,388.8503,101.4803)"><text
           transform="translate(-5.005371,7)"
           style="font-variant:normal;font-weight:normal;font-size:18px;font-family:Helvetica;-inkscape-font-specification:Helvetica;writing-mode:lr-tb;fill:#000000;fill-opacity:1;fill-rule:nonzero;stroke:none"
           id="text226"><tspan
             x="0"
             y="0"
             id="tspan228">0</tspan></text>
</g><path
         d="m 456.0652,40.13614 c 5.5351,-5.53499 5.5351,-14.50899 0,-20.04398 -5.535,-5.53502 -14.509,-5.53502 -20.044,0 -5.535,5.53499 -5.535,14.50899 0,20.04398 5.535,5.53503 14.509,5.53503 20.044,0"
         style="fill:#ffffff;fill-opacity:1;fill-rule:nonzero;stroke:none"
         id="path230"
         inkscape:connector-curvature="0" /><g
         id="g232"
         transform="matrix(1,0,0,-1,-7.5,143.5)"><path
           d="m 463.5652,103.3639 c 5.5351,5.5349 5.5351,14.5089 0,20.0439 -5.535,5.5351 -14.509,5.5351 -20.044,0 -5.535,-5.535 -5.535,-14.509 0,-20.0439 5.535,-5.53507 14.509,-5.53507 20.044,0"
           style="fill:none;stroke:#000000;stroke-width:1;stroke-linecap:round;stroke-linejoin:round;stroke-miterlimit:10;stroke-dasharray:none;stroke-opacity:1"
           id="path234"
           inkscape:connector-curvature="0" /></g><g
         id="g236"
         transform="matrix(1,0,0,-1,445.5432,30.61415)"><text
           transform="translate(-5.005371,7)"
           style="font-variant:normal;font-weight:normal;font-size:18px;font-family:Helvetica;-inkscape-font-specification:Helvetica;writing-mode:lr-tb;fill:#000000;fill-opacity:1;fill-rule:nonzero;stroke:none"
           id="text238"><tspan
             x="0"
             y="0"
             id="tspan240">3</tspan></text>
</g><path
         d="m 512.7592,111.0023 c 5.5351,-5.535 5.5351,-14.50895 0,-20.04394 -5.535,-5.53502 -14.509,-5.53502 -20.044,0 -5.535,5.53499 -5.535,14.50894 0,20.04394 5.535,5.5351 14.509,5.5351 20.044,0"
         style="fill:#ffffff;fill-opacity:1;fill-rule:nonzero;stroke:none"
         id="path242"
         inkscape:connector-curvature="0" /><g
         id="g244"
         transform="matrix(1,0,0,-1,-7.5,143.5)"><path
           d="m 520.2592,32.49766 c 5.5351,5.53499 5.5351,14.50899 0,20.04398 -5.535,5.53502 -14.509,5.53502 -20.044,0 -5.535,-5.53499 -5.535,-14.50899 0,-20.04398 5.535,-5.53503 14.509,-5.53503 20.044,0"
           style="fill:none;stroke:#000000;stroke-width:1;stroke-linecap:round;stroke-linejoin:round;stroke-miterlimit:10;stroke-dasharray:none;stroke-opacity:1"
           id="path246"
           inkscape:connector-curvature="0" /></g><g
         id="g248"
         transform="matrix(1,0,0,-1,502.2372,101.4803)"><text
           transform="translate(-5.005371,7)"
           style="font-variant:normal;font-weight:normal;font-size:18px;font-family:Helvetica;-inkscape-font-specification:Helvetica;writing-mode:lr-tb;fill:#000000;fill-opacity:1;fill-rule:nonzero;stroke:none"
           id="text250"><tspan
             x="0"
             y="0"
             id="tspan252">2</tspan></text>
</g><g
         id="g254"
         transform="matrix(1,0,0,-1,-7.5,143.5)"><path
           d="M 462.7104,101.9271 496.7596,59.36638"
           style="fill:none;stroke:#000000;stroke-width:1;stroke-linecap:round;stroke-linejoin:round;stroke-miterlimit:10;stroke-dasharray:none;stroke-opacity:1"
           id="path256"
           inkscape:connector-curvature="0" /></g><path
         d="m 492.3831,88.03793 -7.3402,-4.37278 4.2167,0.46847 0,0 0.4685,-4.2167 2.655,8.12101 z"
         style="fill:#000000;fill-opacity:1;fill-rule:nonzero;stroke:none"
         id="path258"
         inkscape:connector-curvature="0" /><g
         id="g260"
         transform="matrix(1,0,0,-1,-7.5,143.5)"><path
           d="m 499.8831,55.46207 -7.3402,4.37278 4.2167,-0.46847 0,0 0.4685,4.2167 2.655,-8.12101 z"
           style="fill:none;stroke:#000000;stroke-width:1;stroke-linecap:butt;stroke-linejoin:miter;stroke-miterlimit:10;stroke-dasharray:none;stroke-opacity:1"
           id="path262"
           inkscape:connector-curvature="0" /></g><path
         d="m 62.29556,15.94095 -45.35432,0 c -3.12945,0 -5.66929,3.1748 -5.66929,7.0866 0,3.9118 2.53984,7.0866 5.66929,7.0866 l 45.35432,0 c 3.12945,0 5.66929,-3.1748 5.66929,-7.0866 0,-3.9118 -2.53984,-7.0866 -5.66929,-7.0866"
         style="fill:#ffffff;fill-opacity:1;fill-rule:nonzero;stroke:none"
         id="path264"
         inkscape:connector-curvature="0" /><g
         id="g266"
         transform="matrix(1,0,0,-1,-7.5,143.5)"><path
           d="m 69.79556,127.5591 -45.35432,0 c -3.12945,0 -5.66929,-3.1748 -5.66929,-7.0866 0,-3.9119 2.53984,-7.0867 5.66929,-7.0867 l 45.35432,0 c 3.12945,0 5.66929,3.1748 5.66929,7.0867 0,3.9118 -2.53984,7.0866 -5.66929,7.0866 m -45.35432,0 c 3.12945,0 5.66929,-3.1748 5.66929,-7.0866 0,-3.9119 -2.53984,-7.0867 -5.66929,-7.0867"
           style="fill:none;stroke:#000000;stroke-width:1;stroke-linecap:round;stroke-linejoin:round;stroke-miterlimit:10;stroke-dasharray:none;stroke-opacity:1"
           id="path268"
           inkscape:connector-curvature="0" /></g><path
         d="m 250.8028,15.94095 -45.3544,0 c -3.1294,0 -5.6693,3.1748 -5.6693,7.0866 0,3.9118 2.5399,7.0866 5.6693,7.0866 l 45.3544,0 c 3.1294,0 5.6692,-3.1748 5.6692,-7.0866 0,-3.9118 -2.5398,-7.0866 -5.6692,-7.0866"
         style="fill:#ffffff;fill-opacity:1;fill-rule:nonzero;stroke:none"
         id="path270"
         inkscape:connector-curvature="0" /><g
         id="g272"
         transform="matrix(1,0,0,-1,-7.5,143.5)"><path
           d="m 258.3028,127.5591 -45.3544,0 c -3.1294,0 -5.6693,-3.1748 -5.6693,-7.0866 0,-3.9119 2.5399,-7.0867 5.6693,-7.0867 l 45.3544,0 c 3.1294,0 5.6692,3.1748 5.6692,7.0867 0,3.9118 -2.5398,7.0866 -5.6692,7.0866 m -45.3544,0 c 3.1295,0 5.6693,-3.1748 5.6693,-7.0866 0,-3.9119 -2.5398,-7.0867 -5.6693,-7.0867"
           style="fill:none;stroke:#000000;stroke-width:1;stroke-linecap:round;stroke-linejoin:round;stroke-miterlimit:10;stroke-dasharray:none;stroke-opacity:1"
           id="path274"
           inkscape:connector-curvature="0" /></g><g
         id="g276"
         transform="matrix(1,0,0,-1,245.997,21.945)"><text
           transform="translate(-3.058838,3.5)"
           style="font-variant:normal;font-weight:normal;font-size:11px;font-family:Helvetica;-inkscape-font-specification:Helvetica;writing-mode:lr-tb;fill:#000000;fill-opacity:1;fill-rule:nonzero;stroke:none"
           id="text278"><tspan
             x="0"
             y="0"
             id="tspan280">2</tspan></text>
</g><path
         d="m 419.0968,15.94095 -45.3543,0 c -3.1295,0 -5.6693,3.1748 -5.6693,7.0866 0,3.9118 2.5398,7.0866 5.6693,7.0866 l 45.3543,0 c 3.1294,0 5.6693,-3.1748 5.6693,-7.0866 0,-3.9118 -2.5399,-7.0866 -5.6693,-7.0866"
         style="fill:#ffffff;fill-opacity:1;fill-rule:nonzero;stroke:none"
         id="path282"
         inkscape:connector-curvature="0" /><g
         id="g284"
         transform="matrix(1,0,0,-1,-7.5,143.5)"><path
           d="m 426.5968,127.5591 -45.3543,0 c -3.1295,0 -5.6693,-3.1748 -5.6693,-7.0866 0,-3.9119 2.5398,-7.0867 5.6693,-7.0867 l 45.3543,0 c 3.1294,0 5.6693,3.1748 5.6693,7.0867 0,3.9118 -2.5399,7.0866 -5.6693,7.0866 m -45.3543,0 c 3.1294,0 5.6692,-3.1748 5.6692,-7.0866 0,-3.9119 -2.5398,-7.0867 -5.6692,-7.0867"
           style="fill:none;stroke:#000000;stroke-width:1;stroke-linecap:round;stroke-linejoin:round;stroke-miterlimit:10;stroke-dasharray:none;stroke-opacity:1"
           id="path286"
           inkscape:connector-curvature="0" /></g></g></g></svg>